<svg width="51" height="21" viewBox="0 0 51 21" fill="none" xmlns="http://www.w3.org/2000/svg">
<path d="M22.3179 10.2803C22.3179 9.01602 22.0698 7.8098 21.6359 6.69036C21.5202 10.3727 17.6365 13.2247 15.3561 15.1121H21.0645C21.8628 13.6705 22.3179 12.0272 22.3179 10.2803ZM18.191 2.17139C16.3844 0.814705 14.1183 -5.85381e-05 11.6495 -5.85381e-05C5.75831 -5.85381e-05 0.982422 4.60257 0.982422 10.2803C0.982422 15.958 5.75831 20.5607 11.6495 20.5607C14.3483 20.5607 16.8053 19.5886 18.6828 17.9965H10.9594L10.9364 15.8101C15.5898 11.9117 18.4428 9.27512 18.4428 6.72844C18.4428 5.78194 18.0686 4.58758 16.3856 4.58758C15.0527 4.58758 13.7664 5.3318 13.9995 8.441H11.2877C10.6088 4.83607 12.6436 1.97285 16.5255 1.97285C17.1261 1.97285 17.6837 2.04278 18.191 2.17139Z" fill="#AFCA0B"/>
<path d="M32.2127 7.10559H34.7361C34.8219 5.25567 34.1754 2.32503 30.0131 2.32503C26.9506 2.32503 24.728 4.09191 24.728 7.77051C24.728 8.26936 24.7498 10.8466 24.7498 12.4474C24.7498 16.4376 27.6189 17.311 30.0342 17.311C31.4797 17.311 33.5711 16.9989 34.5422 15.9806V9.62043H29.7974V11.928H31.9111V14.7331C30.3146 15.2526 27.4032 15.4611 27.4032 11.928V7.77051C27.4032 5.29751 28.5894 4.44466 29.9043 4.44466C31.2639 4.44466 32.2127 5.1102 32.2127 7.10559ZM50.9811 13.2791C51.0899 7.58383 44.3177 9.47496 44.3824 6.29457C44.4035 5.17264 45.1589 4.44466 46.388 4.44466C47.7029 4.44466 48.48 5.19324 48.4576 7.14742H50.9382C51.0035 5.37992 50.5726 2.36623 46.475 2.36623C43.9298 2.36623 41.8372 3.57246 41.7943 6.25337C41.6861 11.7195 48.5011 9.9326 48.393 13.2366C48.3501 14.5877 47.3367 15.1902 46.1934 15.1902C44.8568 15.1902 43.7781 14.4422 43.9938 12.1977H41.4915C41.2117 15.1696 42.5708 17.2904 46.1723 17.2904C49.213 17.2904 50.9382 15.6684 50.9811 13.2791ZM39.5885 17.1025H37.0432V2.55354H39.5885V17.1025ZM39.5885 17.1025H37.0432V2.55354H39.5885V17.1025Z" fill="#3C3C3B"/>
</svg>
