<svg width="24" height="18" viewBox="0 0 24 18" fill="none" xmlns="http://www.w3.org/2000/svg">
<path d="M0 0V1.8H17.1429V0H0ZM18.8571 0V1.8H20.5714V0H18.8571ZM22.2857 0V1.8H24V0H22.2857ZM2 3.6C0.89543 3.6 0 4.49543 0 5.6V16C0 17.1046 0.895431 18 2 18H22C23.1046 18 24 17.1046 24 16V5.6C24 4.49543 23.1046 3.6 22 3.6H2ZM13.7913 4.99922L15.3248 5.80078L10.2087 16.6008L8.67522 15.7992L13.7913 4.99922ZM6.25112 6.56367L7.46317 7.83633L4.64063 10.8L7.46317 13.7637L6.25112 15.0363L2.21652 10.8L6.25112 6.56367ZM17.7489 6.56367L21.7835 10.8L17.7489 15.0363L16.5368 13.7637L19.3594 10.8L16.5368 7.83633L17.7489 6.56367Z" fill="#330099"/>
</svg>
