<svg width="24" height="25" viewBox="0 0 24 25" fill="none" xmlns="http://www.w3.org/2000/svg">
<g opacity="0.5">
<path d="M15.75 2.75H8.25C4.79875 2.75 2 5.54875 2 9V16.5C2 19.9513 4.79875 22.75 8.25 22.75H15.75C19.2013 22.75 22 19.9513 22 16.5V9C22 5.54875 19.2013 2.75 15.75 2.75ZM20.125 16.5C20.125 18.9125 18.1625 20.875 15.75 20.875H8.25C5.8375 20.875 3.875 18.9125 3.875 16.5V9C3.875 6.5875 5.8375 4.625 8.25 4.625H15.75C18.1625 4.625 20.125 6.5875 20.125 9V16.5Z" fill="white"/>
<path d="M12 7.75C9.23875 7.75 7 9.98875 7 12.75C7 15.5113 9.23875 17.75 12 17.75C14.7613 17.75 17 15.5113 17 12.75C17 9.98875 14.7613 7.75 12 7.75ZM12 15.875C10.2775 15.875 8.875 14.4725 8.875 12.75C8.875 11.0263 10.2775 9.625 12 9.625C13.7225 9.625 15.125 11.0263 15.125 12.75C15.125 14.4725 13.7225 15.875 12 15.875Z" fill="white"/>
<path d="M17.3752 8.04124C17.7432 8.04124 18.0415 7.74295 18.0415 7.37499C18.0415 7.00703 17.7432 6.70874 17.3752 6.70874C17.0073 6.70874 16.709 7.00703 16.709 7.37499C16.709 7.74295 17.0073 8.04124 17.3752 8.04124Z" fill="white"/>
</g>
</svg>
