<svg width="186" height="24" viewBox="0 0 186 24" fill="none" xmlns="http://www.w3.org/2000/svg">
<path d="M0 24H0.591632L10.9311 8.89044C11.072 8.62145 10.9968 8.48696 10.7057 8.48696H6.43752L10.9311 0.403478C11.0626 0.134493 10.964 0 10.6353 0H4.91618C4.75653 0 4.61097 0.0881159 4.4795 0.264348L0.309902 11.2417C0.272338 11.5107 0.366248 11.6452 0.591632 11.6452H4.71897L0 24Z" fill="#FFCC33"/>
<path d="M41.265 6.05957L36.5507 20.1575H32.9687L29.7985 10.6112L26.5253 20.1575H22.9638L18.229 6.05957H21.6875L24.9401 15.9684L28.3368 6.05957H31.4248L34.7186 16.049L38.0741 6.05957H41.265Z" fill="white"/>
<path d="M52.9254 14.619C52.9254 14.6593 52.9048 14.9413 52.8636 15.4649H44.485C44.6359 16.1362 44.9928 16.6666 45.5554 17.056C46.1181 17.4453 46.8182 17.64 47.6553 17.64C48.2317 17.64 48.7395 17.5595 49.1787 17.3984C49.6315 17.2238 50.05 16.9553 50.4344 16.5927L52.1431 18.4053C51.1001 19.5735 49.5766 20.1575 47.5728 20.1575C46.3239 20.1575 45.2191 19.9225 44.2585 19.4526C43.2977 18.9693 42.5566 18.3046 42.0352 17.4588C41.5136 16.6129 41.2529 15.6529 41.2529 14.5788C41.2529 13.5181 41.5068 12.5648 42.0146 11.7189C42.536 10.8596 43.2429 10.195 44.1351 9.72502C45.0408 9.24168 46.0494 9 47.1611 9C48.2453 9 49.2267 9.22824 50.1051 9.68474C50.9834 10.1413 51.6695 10.7992 52.1637 11.6585C52.6715 12.5043 52.9254 13.4912 52.9254 14.619ZM47.1817 11.3765C46.4544 11.3765 45.8436 11.5779 45.3496 11.9807C44.8556 12.3835 44.5536 12.934 44.4438 13.6322H49.8992C49.7893 12.9474 49.4874 12.4036 48.9934 12.0008C48.4992 11.5846 47.8954 11.3765 47.1817 11.3765Z" fill="white"/>
<path d="M61.6094 8.99992C62.6388 8.99992 63.572 9.23487 64.4091 9.70481C65.2601 10.1613 65.9257 10.8125 66.4061 11.6584C66.8863 12.4908 67.1266 13.4643 67.1266 14.5787C67.1266 15.6931 66.8863 16.6732 66.4061 17.5191C65.9257 18.3516 65.2601 19.0028 64.4091 19.4727C63.572 19.9292 62.6388 20.1574 61.6094 20.1574C60.086 20.1574 58.9263 19.6875 58.1304 18.7476V19.9963H55.063V5.05249H58.2745V10.309C59.0842 9.43627 60.1958 8.99992 61.6094 8.99992ZM61.0536 17.5795C61.8771 17.5795 62.5496 17.311 63.071 16.7739C63.6064 16.2234 63.8739 15.4917 63.8739 14.5787C63.8739 13.6657 63.6064 12.9406 63.071 12.4036C62.5496 11.8531 61.8771 11.5778 61.0536 11.5778C60.2303 11.5778 59.5508 11.8531 59.0156 12.4036C58.4942 12.9406 58.2333 13.6657 58.2333 14.5787C58.2333 15.4917 58.4942 16.2234 59.0156 16.7739C59.5508 17.311 60.2303 17.5795 61.0536 17.5795Z" fill="white"/>
<path d="M82.7194 6.05957V20.1575H79.3843V14.3774H72.8379V20.1575H69.5029V6.05957H72.8379V11.6182H79.3843V6.05957H82.7194Z" fill="white"/>
<path d="M96.7509 14.619C96.7509 14.6593 96.7303 14.9413 96.6892 15.4649H88.3105C88.4616 16.1362 88.8183 16.6666 89.3811 17.056C89.9438 17.4453 90.6436 17.64 91.4808 17.64C92.0572 17.64 92.565 17.5595 93.0042 17.3984C93.4572 17.2238 93.8757 16.9553 94.2601 16.5927L95.9686 18.4053C94.9255 19.5735 93.4023 20.1575 91.3985 20.1575C90.1496 20.1575 89.0448 19.9225 88.0842 19.4526C87.1234 18.9693 86.3823 18.3046 85.8607 17.4588C85.3393 16.6129 85.0786 15.6529 85.0786 14.5788C85.0786 13.5181 85.3325 12.5648 85.8403 11.7189C86.3617 10.8596 87.0686 10.195 87.9606 9.72502C88.8663 9.24168 89.8751 9 90.9868 9C92.071 9 93.0522 9.22824 93.9305 9.68474C94.8089 10.1413 95.4952 10.7992 95.9892 11.6585C96.497 12.5043 96.7509 13.4912 96.7509 14.619ZM91.0074 11.3765C90.2801 11.3765 89.6692 11.5779 89.1753 11.9807C88.6811 12.3835 88.3791 12.934 88.2695 13.6322H93.7247C93.615 12.9474 93.3131 12.4036 92.8189 12.0008C92.3249 11.5846 91.7211 11.3765 91.0074 11.3765Z" fill="white"/>
<path d="M101.956 10.7522C102.341 10.2285 102.855 9.83246 103.5 9.56393C104.159 9.29539 104.914 9.16113 105.765 9.16113V12.0613C105.408 12.0344 105.168 12.021 105.044 12.021C104.125 12.021 103.404 12.2761 102.883 12.7863C102.361 13.2831 102.101 14.035 102.101 15.042V20.1575H98.8892V9.32225H101.956V10.7522Z" fill="white"/>
<path d="M112.844 20.1575C111.677 20.1575 110.627 19.9225 109.694 19.4526C108.774 18.9693 108.054 18.3046 107.532 17.4588C107.011 16.6129 106.75 15.6529 106.75 14.5788C106.75 13.5046 107.011 12.5446 107.532 11.6988C108.054 10.8529 108.774 10.195 109.694 9.72502C110.627 9.24168 111.677 9 112.844 9C114.01 9 115.053 9.24168 115.973 9.72502C116.892 10.195 117.613 10.8529 118.134 11.6988C118.656 12.5446 118.916 13.5046 118.916 14.5788C118.916 15.6529 118.656 16.6129 118.134 17.4588C117.613 18.3046 116.892 18.9693 115.973 19.4526C115.053 19.9225 114.01 20.1575 112.844 20.1575ZM112.844 17.5796C113.667 17.5796 114.34 17.3111 114.861 16.774C115.396 16.2235 115.664 15.4918 115.664 14.5788C115.664 13.6658 115.396 12.9407 114.861 12.4036C114.34 11.8531 113.667 11.5779 112.844 11.5779C112.02 11.5779 111.341 11.8531 110.806 12.4036C110.27 12.9407 110.003 13.6658 110.003 14.5788C110.003 15.4918 110.27 16.2235 110.806 16.774C111.341 17.3111 112.02 17.5796 112.844 17.5796Z" fill="white"/>
<path d="M126.14 20.1575C125.1 20.1575 124.1 19.9908 123.14 19.6575C122.193 19.3242 121.46 18.8842 120.94 18.3375L121.52 17.1975C122.027 17.7042 122.7 18.1175 123.54 18.4375C124.38 18.7442 125.247 18.8975 126.14 18.8975C127.393 18.8975 128.333 18.6708 128.96 18.2175C129.587 17.7508 129.9 17.1508 129.9 16.4175C129.9 15.8575 129.727 15.4108 129.38 15.0775C129.047 14.7442 128.633 14.4908 128.14 14.3175C127.647 14.1308 126.96 13.9308 126.08 13.7175C125.027 13.4508 124.187 13.1975 123.56 12.9575C122.933 12.7042 122.393 12.3242 121.94 11.8175C121.5 11.3108 121.28 10.6242 121.28 9.75751C121.28 9.05084 121.467 8.41084 121.84 7.83751C122.213 7.25084 122.787 6.78418 123.56 6.43751C124.333 6.09084 125.293 5.91751 126.44 5.91751C127.24 5.91751 128.02 6.03084 128.78 6.25751C129.553 6.47084 130.22 6.77084 130.78 7.15751L130.28 8.33751C129.693 7.95084 129.067 7.66418 128.4 7.47751C127.733 7.27751 127.08 7.17751 126.44 7.17751C125.213 7.17751 124.287 7.41751 123.66 7.89751C123.047 8.36418 122.74 8.97084 122.74 9.71751C122.74 10.2775 122.907 10.7308 123.24 11.0775C123.587 11.4108 124.013 11.6708 124.52 11.8575C125.04 12.0308 125.733 12.2242 126.6 12.4375C127.627 12.6908 128.453 12.9442 129.08 13.1975C129.72 13.4375 130.26 13.8108 130.7 14.3175C131.14 14.8108 131.36 15.4842 131.36 16.3375C131.36 17.0442 131.167 17.6908 130.78 18.2775C130.407 18.8508 129.827 19.3108 129.04 19.6575C128.253 19.9908 127.287 20.1575 126.14 20.1575Z" fill="white"/>
<path d="M138.645 20.1375C137.605 20.1375 136.671 19.9108 135.845 19.4575C135.031 19.0042 134.391 18.3708 133.925 17.5575C133.458 16.7308 133.225 15.8042 133.225 14.7775C133.225 13.7508 133.458 12.8308 133.925 12.0175C134.391 11.2042 135.031 10.5708 135.845 10.1175C136.671 9.66418 137.605 9.43751 138.645 9.43751C139.551 9.43751 140.358 9.61751 141.065 9.97751C141.785 10.3242 142.351 10.8375 142.765 11.5175L141.705 12.2375C141.358 11.7175 140.918 11.3308 140.385 11.0775C139.851 10.8108 139.271 10.6775 138.645 10.6775C137.885 10.6775 137.198 10.8508 136.585 11.1975C135.985 11.5308 135.511 12.0108 135.165 12.6375C134.831 13.2642 134.665 13.9775 134.665 14.7775C134.665 15.5908 134.831 16.3108 135.165 16.9375C135.511 17.5508 135.985 18.0308 136.585 18.3775C137.198 18.7108 137.885 18.8775 138.645 18.8775C139.271 18.8775 139.851 18.7508 140.385 18.4975C140.918 18.2442 141.358 17.8575 141.705 17.3375L142.765 18.0575C142.351 18.7375 141.785 19.2575 141.065 19.6175C140.345 19.9642 139.538 20.1375 138.645 20.1375Z" fill="white"/>
<path d="M150.758 9.43751C152.078 9.43751 153.125 9.82418 153.898 10.5975C154.685 11.3575 155.078 12.4708 155.078 13.9375V20.0375H153.658V14.0775C153.658 12.9842 153.385 12.1508 152.838 11.5775C152.291 11.0042 151.511 10.7175 150.498 10.7175C149.365 10.7175 148.465 11.0575 147.798 11.7375C147.145 12.4042 146.818 13.3308 146.818 14.5175V20.0375H145.398V5.19751H146.818V11.3575C147.205 10.7442 147.738 10.2708 148.418 9.93751C149.098 9.60418 149.878 9.43751 150.758 9.43751Z" fill="white"/>
<path d="M163.272 20.1375C162.259 20.1375 161.345 19.9108 160.532 19.4575C159.719 18.9908 159.079 18.3508 158.612 17.5375C158.145 16.7242 157.912 15.8042 157.912 14.7775C157.912 13.7508 158.145 12.8308 158.612 12.0175C159.079 11.2042 159.719 10.5708 160.532 10.1175C161.345 9.66418 162.259 9.43751 163.272 9.43751C164.285 9.43751 165.199 9.66418 166.012 10.1175C166.825 10.5708 167.459 11.2042 167.912 12.0175C168.379 12.8308 168.612 13.7508 168.612 14.7775C168.612 15.8042 168.379 16.7242 167.912 17.5375C167.459 18.3508 166.825 18.9908 166.012 19.4575C165.199 19.9108 164.285 20.1375 163.272 20.1375ZM163.272 18.8775C164.019 18.8775 164.685 18.7108 165.272 18.3775C165.872 18.0308 166.339 17.5442 166.672 16.9175C167.005 16.2908 167.172 15.5775 167.172 14.7775C167.172 13.9775 167.005 13.2642 166.672 12.6375C166.339 12.0108 165.872 11.5308 165.272 11.1975C164.685 10.8508 164.019 10.6775 163.272 10.6775C162.525 10.6775 161.852 10.8508 161.252 11.1975C160.665 11.5308 160.199 12.0108 159.852 12.6375C159.519 13.2642 159.352 13.9775 159.352 14.7775C159.352 15.5775 159.519 16.2908 159.852 16.9175C160.199 17.5442 160.665 18.0308 161.252 18.3775C161.852 18.7108 162.525 18.8775 163.272 18.8775Z" fill="white"/>
<path d="M175.811 20.1375C174.798 20.1375 173.885 19.9108 173.071 19.4575C172.258 18.9908 171.618 18.3508 171.151 17.5375C170.685 16.7242 170.451 15.8042 170.451 14.7775C170.451 13.7508 170.685 12.8308 171.151 12.0175C171.618 11.2042 172.258 10.5708 173.071 10.1175C173.885 9.66418 174.798 9.43751 175.811 9.43751C176.825 9.43751 177.738 9.66418 178.551 10.1175C179.365 10.5708 179.998 11.2042 180.451 12.0175C180.918 12.8308 181.151 13.7508 181.151 14.7775C181.151 15.8042 180.918 16.7242 180.451 17.5375C179.998 18.3508 179.365 18.9908 178.551 19.4575C177.738 19.9108 176.825 20.1375 175.811 20.1375ZM175.811 18.8775C176.558 18.8775 177.225 18.7108 177.811 18.3775C178.411 18.0308 178.878 17.5442 179.211 16.9175C179.545 16.2908 179.711 15.5775 179.711 14.7775C179.711 13.9775 179.545 13.2642 179.211 12.6375C178.878 12.0108 178.411 11.5308 177.811 11.1975C177.225 10.8508 176.558 10.6775 175.811 10.6775C175.065 10.6775 174.391 10.8508 173.791 11.1975C173.205 11.5308 172.738 12.0108 172.391 12.6375C172.058 13.2642 171.891 13.9775 171.891 14.7775C171.891 15.5775 172.058 16.2908 172.391 16.9175C172.738 17.5442 173.205 18.0308 173.791 18.3775C174.391 18.7108 175.065 18.8775 175.811 18.8775Z" fill="white"/>
<path d="M184.05 5.19751H185.47V20.0375H184.05V5.19751Z" fill="white"/>
</svg>
