<svg width="59" height="21" viewBox="0 0 59 21" fill="none" xmlns="http://www.w3.org/2000/svg">
<path d="M58.9822 2.15485H57.0923V14.9869H58.9822V2.15485Z" fill="#005FF9"/>
<path fill-rule="evenodd" clip-rule="evenodd" d="M55.0646 14.9869H53.1746V5.89362H55.0646V14.9869ZM54.1199 1.83643C54.8241 1.83643 55.3955 2.40783 55.3955 3.11197C55.3955 3.81611 54.8241 4.38814 54.1199 4.38814C53.4158 4.38814 52.8438 3.81611 52.8438 3.11197C52.8438 2.40783 53.4158 1.83643 54.1199 1.83643Z" fill="#005FF9"/>
<path fill-rule="evenodd" clip-rule="evenodd" d="M51.1209 14.9868H49.2627V13.9923C48.5972 14.7463 47.4245 15.2199 46.3215 15.2199C43.6832 15.2199 41.5415 13.0782 41.5415 10.4399C41.5415 7.80217 43.6832 5.65985 46.3215 5.65985C47.4245 5.65985 48.5355 6.07548 49.2627 6.81015V5.89352H51.1209V14.9868ZM46.382 7.57036C48.0083 7.57036 49.2882 8.73437 49.2882 10.4399C49.2882 12.146 48.0083 13.32 46.382 13.32C44.755 13.32 43.5187 12.0669 43.5187 10.4399C43.5187 8.81351 44.755 7.57036 46.382 7.57036Z" fill="#005FF9"/>
<path fill-rule="evenodd" clip-rule="evenodd" d="M27.6759 14.9868H25.8184V5.89352H27.6759V6.52849C28.0884 6.14091 28.8617 5.66172 29.9347 5.65985C31.2527 5.65985 32.2353 6.21444 32.9089 7.10676C33.6455 6.22378 34.8593 5.65985 36.0969 5.65985C38.418 5.65985 40.0001 7.22764 40.0001 9.67031V14.9868H38.1426V9.67031C38.1426 8.48325 37.1767 7.51802 35.9903 7.51802C34.8033 7.51802 33.838 8.48325 33.838 9.67031V14.9868H31.9805V9.67031C31.9805 8.48325 31.0146 7.51802 29.8282 7.51802C28.6411 7.51802 27.6759 8.48325 27.6759 9.67031V14.9868Z" fill="#005FF9"/>
<path d="M13.3217 10.2804C13.3217 11.9341 11.9764 13.2795 10.3226 13.2795C8.66882 13.2795 7.32348 11.9341 7.32348 10.2804C7.32348 8.62658 8.66882 7.28125 10.3226 7.28125C11.9764 7.28125 13.3217 8.62658 13.3217 10.2804ZM10.3226 0.310303C4.82536 0.310303 0.352539 4.78312 0.352539 10.2804C0.352539 15.7776 4.82536 20.2504 10.3226 20.2504C12.3366 20.2504 14.2788 19.651 15.9389 18.5163L15.9675 18.4963L14.6241 16.9348L14.6016 16.9497C13.3236 17.7716 11.8437 18.2066 10.3226 18.2066C5.95198 18.2066 2.3964 14.651 2.3964 10.2804C2.3964 5.90974 5.95198 2.35417 10.3226 2.35417C14.6932 2.35417 18.2488 5.90974 18.2488 10.2804C18.2488 10.8468 18.1859 11.4201 18.0619 11.984C17.8114 13.0128 17.091 13.3281 16.5502 13.2863C16.0062 13.2421 15.3699 12.8545 15.3656 11.9061V11.1833V10.2804C15.3656 7.49934 13.1036 5.23738 10.3226 5.23738C7.54158 5.23738 5.27962 7.49934 5.27962 10.2804C5.27962 13.0614 7.54158 15.3233 10.3226 15.3233C11.6735 15.3233 12.9404 14.7949 13.8956 13.8347C14.4508 14.699 15.3562 15.2411 16.3863 15.3233C16.4748 15.3308 16.5651 15.3346 16.6548 15.3346C17.3795 15.3346 18.0986 15.0922 18.6781 14.6516C19.2757 14.198 19.7219 13.5418 19.9686 12.7536C20.0079 12.6264 20.0802 12.3348 20.0808 12.333L20.0827 12.3224C20.2279 11.6899 20.2927 11.0593 20.2927 10.2804C20.2927 4.78312 15.8198 0.310303 10.3226 0.310303" fill="#FF9E00"/>
</svg>
