<svg width="111" height="29" viewBox="0 0 111 29" fill="none" xmlns="http://www.w3.org/2000/svg">
<g clip-path="url(#clip0)">
<path d="M11.0583 0.999998C9.03596 0.999998 6.63766 2.93343 4.66092 6.18795C2.60157 9.55586 1.37109 13.7289 1.37109 17.3491C1.37109 22.6533 4.36184 28 11.0554 28C17.749 28 20.7398 22.6533 20.7398 17.3491C20.7398 13.7289 19.5093 9.55586 17.4585 6.18795C15.4732 2.93343 13.0749 0.999998 11.0583 0.999998Z" fill="#CCCCCC"/>
<path d="M63.3794 8.95485H70.1613V26.5542H77.4274V8.95485H84.2093V2.44582H63.3794V8.95485Z" fill="#CCCCCC"/>
<path d="M99.7097 8.95485H110.368V2.43448H99.7125C89.92 2.43448 84.6904 7.2794 84.6904 14.4887C84.6904 21.6979 89.92 26.5428 99.7125 26.5428H110.368V20.0225H99.7097C95.1808 20.0225 92.1986 18.4094 92.1986 14.4773C92.1986 10.5453 95.1808 8.95485 99.7097 8.95485Z" fill="#CCCCCC"/>
<path d="M48.5991 2.44582L44.7282 16.836L40.8516 2.44582H28.0142V26.5542H35.2831V6.94487L40.5611 26.5542H48.8924L54.1761 6.93354V26.5542H61.4422V2.44582H48.5991Z" fill="#CCCCCC"/>
</g>
<defs>
<clipPath id="clip0">
<rect x="0.685547" y="0.5" width="110" height="28" fill="white"/>
</clipPath>
</defs>
</svg>
