<svg width="158" height="45" viewBox="0 0 158 45" fill="none" xmlns="http://www.w3.org/2000/svg">
<path d="M7.26902 19.2164H1.06836V15.413H17.9847V19.2164H11.7841V29.6983H7.26902V19.2164Z" fill="#CCCCCC"/>
<path d="M35.3225 15.413V29.6983H30.958V21.3727L23.4329 29.6983H19.5801V15.4729H23.9446V23.7086L31.4697 15.413H35.3225Z" fill="#CCCCCC"/>
<path d="M42.8401 29.6983H38.4756V15.4729H42.8401V20.7138H49.8535V15.4729H54.218V29.6983H49.8535V24.3675H42.8401V29.6983Z" fill="#CCCCCC"/>
<path d="M57.3711 29.6983V15.4729H61.7356V19.2164H66.2507C67.3289 19.1609 68.4085 19.2927 69.4413 19.6057C70.4327 19.9388 71.2887 20.5832 71.8803 21.4419C72.472 22.3006 72.7675 23.3273 72.7222 24.3675C72.7601 25.4956 72.4069 26.6024 71.7218 27.5021C71.0368 28.4019 70.0615 29.0398 68.9597 29.3089C68.0666 29.5455 67.1446 29.6563 66.2206 29.6384L57.3711 29.6983ZM61.7356 26.2542H65.4982C66.0785 26.3062 66.6634 26.2347 67.2139 26.0446C67.547 25.9081 67.8312 25.6753 68.0298 25.3763C68.2284 25.0773 68.3321 24.7258 68.3276 24.3675C68.334 24.0192 68.2257 23.6785 68.0192 23.3973C67.8126 23.1161 67.5192 22.9099 67.1838 22.8102C66.636 22.6569 66.0662 22.5961 65.4982 22.6305H61.7356V26.2542Z" fill="#CCCCCC"/>
<path d="M79.0584 29.6983H74.6938V15.4729H79.0584V20.8336H80.2624L85.53 15.4729H91.0082L84.0249 22.2112L91.2791 29.6983H85.4698L80.2624 24.3076H79.0584V29.6983Z" fill="#CCCCCC"/>
<path d="M109.731 22.5706C109.731 26.8232 106.209 30.1175 100.369 30.1175C94.5299 30.1175 90.978 26.8232 90.978 22.5706C90.978 18.3179 94.4998 15.0236 100.399 15.0236C106.299 15.0236 109.731 18.3179 109.731 22.5706ZM105.155 22.5706C105.155 20.2346 103.259 18.5276 100.369 18.5276C97.4797 18.5276 95.5834 20.2346 95.5834 22.5706C95.5834 24.9065 97.4496 26.6435 100.369 26.6435C103.289 26.6435 105.155 24.9065 105.155 22.5706Z" fill="#CCCCCC"/>
<path d="M132.9 22.5406C132.9 26.6136 129.619 28.7399 124.111 28.8597V30.2972H119.746V28.8597C114.268 28.7399 110.987 26.6136 110.987 22.5406C110.987 18.4677 114.268 16.1617 119.746 16.0419V14.6044H124.111V16.0419C129.627 16.1617 132.9 18.4677 132.9 22.5406ZM119.746 19.1265C116.736 19.2463 115.412 20.6239 115.412 22.5406C115.412 24.4573 116.736 25.6852 119.746 25.805V19.1265ZM128.445 22.5406C128.445 20.6239 127.151 19.2463 124.111 19.1265V25.805C127.159 25.6852 128.453 24.4573 128.453 22.5406H128.445Z" fill="#CCCCCC"/>
<path d="M156.085 22.5406C156.085 26.6136 152.804 28.7399 147.296 28.8597V30.2972H142.931V28.8597C137.453 28.7399 134.172 26.6136 134.172 22.5406C134.172 18.4677 137.453 16.1617 142.931 16.0419V14.6044H147.296V16.0419C152.804 16.1617 156.085 18.4677 156.085 22.5406ZM142.931 19.1265C139.921 19.2463 138.597 20.6239 138.597 22.5406C138.597 24.4573 139.921 25.6852 142.931 25.805V19.1265ZM151.63 22.5406C151.63 20.6239 150.336 19.2463 147.296 19.1265V25.805C150.336 25.6852 151.623 24.4573 151.623 22.5406H151.63Z" fill="#CCCCCC"/>
</svg>
