<svg width="105" height="12" viewBox="0 0 105 12" fill="none" xmlns="http://www.w3.org/2000/svg">
<path d="M4.17409 4.09966H0V1.53528H11.3876V4.09966H7.21347V11.1668H4.17409V4.09966Z" fill="#222220"/>
<path d="M23.0588 1.53528V11.1668H20.1207V5.55348L15.055 11.1668H12.4614V1.57566H15.3995V7.12845L20.4651 1.53528H23.0588Z" fill="#222220"/>
<path d="M28.1207 11.1668H25.1826V1.57562H28.1207V5.10921H32.8419V1.57562H35.7799V11.1668H32.8419V7.57263H28.1207V11.1668Z" fill="#222220"/>
<path d="M37.9014 11.1668V1.57562H40.8394V4.09962H43.8788C44.6046 4.06223 45.3314 4.15105 46.0267 4.36211C46.6941 4.5867 47.2702 5.02115 47.6685 5.60014C48.0668 6.17912 48.2657 6.87132 48.2353 7.57263C48.2608 8.33326 48.023 9.07949 47.5618 9.68612C47.1007 10.2927 46.4441 10.7229 45.7025 10.9043C45.1012 11.0638 44.4806 11.1385 43.8586 11.1264L37.9014 11.1668ZM40.8394 8.84472H43.3723C43.7629 8.87976 44.1566 8.83158 44.5272 8.70338C44.7515 8.61139 44.9428 8.45443 45.0765 8.25282C45.2101 8.05121 45.28 7.81425 45.2769 7.57263C45.2813 7.33784 45.2083 7.10809 45.0693 6.91849C44.9303 6.72889 44.7328 6.58986 44.507 6.52265C44.1382 6.4193 43.7546 6.37835 43.3723 6.4015H40.8394V8.84472Z" fill="#222220"/>
<path d="M52.5006 11.1668H49.5625V1.57562H52.5006V5.18998H53.3111L56.857 1.57562H60.5448L55.8439 6.11881L60.7272 11.1668H56.8165L53.3111 7.53225H52.5006V11.1668Z" fill="#222220"/>
<path d="M73.147 6.36108C73.147 9.22833 70.7763 11.4494 66.8454 11.4494C62.9144 11.4494 60.5234 9.22833 60.5234 6.36108C60.5234 3.49382 62.8942 1.27271 66.8656 1.27271C70.8371 1.27271 73.147 3.49382 73.147 6.36108ZM70.0671 6.36108C70.0671 4.7861 68.7906 3.63516 66.8454 3.63516C64.9002 3.63516 63.6236 4.7861 63.6236 6.36108C63.6236 7.93605 64.8799 9.10718 66.8454 9.10718C68.8108 9.10718 70.0671 7.93605 70.0671 6.36108Z" fill="#222220"/>
<path d="M88.7438 6.34092C88.7438 9.08702 86.5352 10.5206 82.8272 10.6014V11.5706H79.8891V10.6014C76.2013 10.5206 73.9927 9.08702 73.9927 6.34092C73.9927 3.59481 76.2013 2.04003 79.8891 1.95926V0.990051H82.8272V1.95926C86.5403 2.04003 88.7438 3.59481 88.7438 6.34092ZM79.8891 4.03904C77.8628 4.1198 76.9713 5.04863 76.9713 6.34092C76.9713 7.6332 77.8628 8.46107 79.8891 8.54184V4.03904ZM85.745 6.34092C85.745 5.04863 84.8737 4.1198 82.8272 4.03904V8.54184C84.8787 8.46107 85.75 7.6332 85.75 6.34092H85.745Z" fill="#222220"/>
<path d="M104.353 6.34092C104.353 9.08702 102.144 10.5206 98.436 10.6014V11.5706H95.498V10.6014C91.8102 10.5206 89.6016 9.08702 89.6016 6.34092C89.6016 3.59481 91.8102 2.04003 95.498 1.95926V0.990051H98.436V1.95926C102.144 2.04003 104.353 3.59481 104.353 6.34092ZM95.498 4.03904C93.4717 4.1198 92.5802 5.04863 92.5802 6.34092C92.5802 7.6332 93.4717 8.46107 95.498 8.54184V4.03904ZM101.354 6.34092C101.354 5.04863 100.483 4.1198 98.436 4.03904V8.54184C100.483 8.46107 101.349 7.6332 101.349 6.34092H101.354Z" fill="#222220"/>
</svg>
