<svg width="22" height="14" viewBox="0 0 22 14" fill="none" xmlns="http://www.w3.org/2000/svg">
<path opacity="0.5" d="M21.0887 10.8223C20.4336 10.0377 19.6628 9.36798 18.9334 8.65686C18.2755 8.01587 18.234 7.64402 18.7629 6.90421C19.3402 6.09676 19.961 5.32029 20.5435 4.51648C21.0873 3.76528 21.6431 3.01613 21.9293 2.11669C22.1108 1.54447 21.9503 1.29171 21.3627 1.19152C21.2615 1.17399 21.1568 1.17308 21.0538 1.17308L17.568 1.16898C17.1387 1.1626 16.9013 1.34955 16.7495 1.72959C16.5445 2.2433 16.3332 2.75654 16.089 3.25226C15.535 4.37622 14.9162 5.4626 14.0487 6.38253C13.8574 6.58542 13.6458 6.84182 13.3262 6.73616C12.9263 6.59043 12.8084 5.93236 12.815 5.70989L12.8116 1.69156C12.7341 1.11752 12.6066 0.861576 12.036 0.75L8.41498 0.750683C7.93163 0.750683 7.68928 0.937174 7.43119 1.23911C7.28231 1.41353 7.2374 1.5267 7.54336 1.58454C8.14435 1.69839 8.48292 2.08686 8.57275 2.68869C8.71684 3.65029 8.70681 4.61576 8.62382 5.58124C8.59943 5.86314 8.55086 6.14435 8.43892 6.40758C8.26382 6.82132 7.98111 6.90557 7.60971 6.651C7.27342 6.42056 7.03722 6.0954 6.80603 5.76887C5.93761 4.54335 5.24473 3.22175 4.67977 1.83297C4.51652 1.43175 4.23495 1.18856 3.80929 1.18196C2.76348 1.16534 1.71745 1.1626 0.671646 1.18287C0.0423847 1.19471 -0.145254 1.49984 0.111011 2.06956C1.25006 4.60005 2.51794 7.06019 4.17294 9.30127C5.02267 10.4514 5.99825 11.4668 7.2586 12.1863C8.68698 13.0019 10.2246 13.2474 11.844 13.1718C12.6023 13.1363 12.8301 12.9393 12.8652 12.1845C12.8889 11.668 12.9475 11.1546 13.2026 10.6905C13.4529 10.2351 13.8321 10.1483 14.2692 10.4316C14.4878 10.5735 14.672 10.754 14.846 10.9444C15.2728 11.4107 15.6843 11.8912 16.1273 12.3418C16.6829 12.9065 17.3411 13.2401 18.1688 13.172L21.3725 13.1727C21.8887 13.139 22.1564 12.5069 21.86 11.9315C21.6518 11.5285 21.3787 11.1696 21.0887 10.8223Z" fill="white"/>
</svg>
