<svg width="22" height="16" viewBox="0 0 22 16" fill="none" xmlns="http://www.w3.org/2000/svg">
<path opacity="0.5" d="M18.2769 0.149902H3.72308C2.73566 0.149902 1.78868 0.541116 1.09046 1.23748C0.392251 1.93385 0 2.87832 0 3.86313V11.6272C0 12.612 0.392251 13.5564 1.09046 14.2528C1.78868 14.9492 2.73566 15.3404 3.72308 15.3404H18.2769C19.2643 15.3404 20.2113 14.9492 20.9095 14.2528C21.6077 13.5564 22 12.612 22 11.6272V3.86313C22 2.87832 21.6077 1.93385 20.9095 1.23748C20.2113 0.541116 19.2643 0.149902 18.2769 0.149902ZM15.3086 7.89367L8.70862 11.2693C8.68292 11.2826 8.65424 11.2891 8.62532 11.2882C8.59639 11.2872 8.56819 11.2789 8.5434 11.264C8.51862 11.2491 8.49808 11.2281 8.48375 11.2031C8.46941 11.178 8.46177 11.1497 8.46154 11.1208V4.36948C8.46177 4.34062 8.46941 4.3123 8.48375 4.28722C8.49808 4.26215 8.51862 4.24116 8.5434 4.22626C8.56819 4.21136 8.59639 4.20305 8.62532 4.20212C8.65424 4.20119 8.68292 4.20767 8.70862 4.22095L15.3086 7.59661C15.3363 7.61078 15.3596 7.63229 15.3758 7.6588C15.3921 7.6853 15.4007 7.71576 15.4007 7.74683C15.4007 7.77789 15.3921 7.80835 15.3758 7.83486C15.3596 7.86136 15.3363 7.88288 15.3086 7.89705V7.89367Z" fill="white"/>
</svg>
