<svg width="1160" height="470" viewBox="0 0 1160 470" fill="none" xmlns="http://www.w3.org/2000/svg">
<g filter="url(#filter0_d)">
<rect y="11" width="1160" height="440" fill="white"/>
<rect x="0.5" y="11.5" width="1159" height="439" stroke="#EAEAEA"/>
</g>
<path d="M40.981 365.524H41.6597C42.0861 365.518 42.4214 365.406 42.6655 365.187C42.9097 364.969 43.0317 364.675 43.0317 364.304C43.0317 363.47 42.6167 363.054 41.7866 363.054C41.396 363.054 41.0835 363.166 40.8491 363.391C40.618 363.612 40.5024 363.906 40.5024 364.274H39.5991C39.5991 363.711 39.8042 363.244 40.2144 362.873C40.6278 362.499 41.1519 362.311 41.7866 362.311C42.4572 362.311 42.9829 362.489 43.3638 362.844C43.7446 363.198 43.9351 363.692 43.9351 364.323C43.9351 364.632 43.8342 364.932 43.6323 365.222C43.4338 365.511 43.162 365.728 42.8169 365.871C43.2075 365.995 43.5086 366.2 43.7202 366.486C43.9351 366.773 44.0425 367.123 44.0425 367.536C44.0425 368.174 43.8342 368.68 43.4175 369.055C43.0008 369.429 42.4588 369.616 41.7915 369.616C41.1242 369.616 40.5806 369.435 40.1607 369.074C39.744 368.713 39.5357 368.236 39.5357 367.643H40.4439C40.4439 368.018 40.5659 368.317 40.8101 368.542C41.0542 368.767 41.3814 368.879 41.7915 368.879C42.2277 368.879 42.5614 368.765 42.7925 368.537C43.0236 368.309 43.1392 367.982 43.1392 367.556C43.1392 367.142 43.0122 366.825 42.7583 366.603C42.5044 366.382 42.1382 366.268 41.6597 366.262H40.981V365.524ZM49.7407 366.486C49.7407 367.544 49.5601 368.33 49.1987 368.845C48.8374 369.359 48.2726 369.616 47.5044 369.616C46.7459 369.616 46.1844 369.365 45.8198 368.864C45.4552 368.36 45.2664 367.608 45.2534 366.608V365.402C45.2534 364.357 45.4341 363.581 45.7954 363.073C46.1567 362.565 46.7232 362.311 47.4946 362.311C48.2596 362.311 48.8228 362.557 49.1841 363.049C49.5454 363.537 49.731 364.292 49.7407 365.314V366.486ZM48.8374 365.251C48.8374 364.486 48.73 363.929 48.5151 363.581C48.3003 363.229 47.9601 363.054 47.4946 363.054C47.0324 363.054 46.6955 363.228 46.4839 363.576C46.2723 363.924 46.1633 364.46 46.1567 365.183V366.628C46.1567 367.396 46.2674 367.964 46.4888 368.332C46.7134 368.697 47.0519 368.879 47.5044 368.879C47.9504 368.879 48.2808 368.706 48.4956 368.361C48.7137 368.016 48.8276 367.473 48.8374 366.73V365.251ZM55.356 366.486C55.356 367.544 55.1753 368.33 54.814 368.845C54.4526 369.359 53.8879 369.616 53.1196 369.616C52.3612 369.616 51.7996 369.365 51.4351 368.864C51.0705 368.36 50.8817 367.608 50.8687 366.608V365.402C50.8687 364.357 51.0493 363.581 51.4107 363.073C51.772 362.565 52.3384 362.311 53.1099 362.311C53.8748 362.311 54.438 362.557 54.7993 363.049C55.1607 363.537 55.3462 364.292 55.356 365.314V366.486ZM54.4526 365.251C54.4526 364.486 54.3452 363.929 54.1304 363.581C53.9155 363.229 53.5754 363.054 53.1099 363.054C52.6476 363.054 52.3107 363.228 52.0991 363.576C51.8875 363.924 51.7785 364.46 51.772 365.183V366.628C51.772 367.396 51.8827 367.964 52.104 368.332C52.3286 368.697 52.6672 368.879 53.1196 368.879C53.5656 368.879 53.896 368.706 54.1108 368.361C54.3289 368.016 54.4429 367.473 54.4526 366.73V365.251ZM60.9712 366.486C60.9712 367.544 60.7905 368.33 60.4292 368.845C60.0679 369.359 59.5031 369.616 58.7349 369.616C57.9764 369.616 57.4149 369.365 57.0503 368.864C56.6857 368.36 56.4969 367.608 56.4839 366.608V365.402C56.4839 364.357 56.6646 363.581 57.0259 363.073C57.3872 362.565 57.9536 362.311 58.7251 362.311C59.4901 362.311 60.0532 362.557 60.4146 363.049C60.7759 363.537 60.9614 364.292 60.9712 365.314V366.486ZM60.0679 365.251C60.0679 364.486 59.9605 363.929 59.7456 363.581C59.5308 363.229 59.1906 363.054 58.7251 363.054C58.2629 363.054 57.926 363.228 57.7144 363.576C57.5028 363.924 57.3937 364.46 57.3872 365.183V366.628C57.3872 367.396 57.4979 367.964 57.7192 368.332C57.9439 368.697 58.2824 368.879 58.7349 368.879C59.1808 368.879 59.5112 368.706 59.7261 368.361C59.9442 368.016 60.0581 367.473 60.0679 366.73V365.251ZM66.5864 366.486C66.5864 367.544 66.4058 368.33 66.0444 368.845C65.6831 369.359 65.1183 369.616 64.3501 369.616C63.5916 369.616 63.0301 369.365 62.6655 368.864C62.301 368.36 62.1121 367.608 62.0991 366.608V365.402C62.0991 364.357 62.2798 363.581 62.6411 363.073C63.0024 362.565 63.5689 362.311 64.3403 362.311C65.1053 362.311 65.6685 362.557 66.0298 363.049C66.3911 363.537 66.5767 364.292 66.5864 365.314V366.486ZM65.6831 365.251C65.6831 364.486 65.5757 363.929 65.3608 363.581C65.146 363.229 64.8058 363.054 64.3403 363.054C63.8781 363.054 63.5412 363.228 63.3296 363.576C63.118 363.924 63.009 364.46 63.0024 365.183V366.628C63.0024 367.396 63.1131 367.964 63.3345 368.332C63.5591 368.697 63.8976 368.879 64.3501 368.879C64.7961 368.879 65.1265 368.706 65.3413 368.361C65.5594 368.016 65.6733 367.473 65.6831 366.73V365.251Z" fill="url(#paint0_linear)"/>
<path d="M66.5864 411.486C66.5864 412.544 66.4058 413.33 66.0444 413.845C65.6831 414.359 65.1183 414.616 64.3501 414.616C63.5916 414.616 63.0301 414.365 62.6655 413.864C62.301 413.36 62.1121 412.608 62.0991 411.608V410.402C62.0991 409.357 62.2798 408.581 62.6411 408.073C63.0024 407.565 63.5689 407.311 64.3403 407.311C65.1053 407.311 65.6685 407.557 66.0298 408.049C66.3911 408.537 66.5767 409.292 66.5864 410.314V411.486ZM65.6831 410.251C65.6831 409.486 65.5757 408.929 65.3608 408.581C65.146 408.229 64.8058 408.054 64.3403 408.054C63.8781 408.054 63.5412 408.228 63.3296 408.576C63.118 408.924 63.009 409.46 63.0024 410.183V411.628C63.0024 412.396 63.1131 412.964 63.3345 413.332C63.5591 413.697 63.8976 413.879 64.3501 413.879C64.7961 413.879 65.1265 413.706 65.3413 413.361C65.5594 413.016 65.6733 412.473 65.6831 411.73V410.251Z" fill="url(#paint1_linear)"/>
<path d="M43.481 321.878H44.4673V322.615H43.481V324.265H42.5728V322.615H39.3355V322.083L42.5191 317.156H43.481V321.878ZM40.3608 321.878H42.5728V318.391L42.4653 318.587L40.3608 321.878ZM49.7407 321.233C49.7407 322.291 49.5601 323.077 49.1987 323.592C48.8374 324.106 48.2726 324.363 47.5044 324.363C46.7459 324.363 46.1844 324.112 45.8198 323.611C45.4552 323.107 45.2664 322.355 45.2534 321.355V320.149C45.2534 319.104 45.4341 318.328 45.7954 317.82C46.1567 317.312 46.7232 317.058 47.4946 317.058C48.2596 317.058 48.8228 317.304 49.1841 317.796C49.5454 318.284 49.731 319.039 49.7407 320.061V321.233ZM48.8374 319.998C48.8374 319.233 48.73 318.676 48.5151 318.328C48.3003 317.976 47.9601 317.801 47.4946 317.801C47.0324 317.801 46.6955 317.975 46.4839 318.323C46.2723 318.671 46.1633 319.207 46.1567 319.929V321.375C46.1567 322.143 46.2674 322.711 46.4888 323.079C46.7134 323.443 47.0519 323.626 47.5044 323.626C47.9504 323.626 48.2808 323.453 48.4956 323.108C48.7137 322.763 48.8276 322.219 48.8374 321.477V319.998ZM55.356 321.233C55.356 322.291 55.1753 323.077 54.814 323.592C54.4526 324.106 53.8879 324.363 53.1196 324.363C52.3612 324.363 51.7996 324.112 51.4351 323.611C51.0705 323.107 50.8817 322.355 50.8687 321.355V320.149C50.8687 319.104 51.0493 318.328 51.4107 317.82C51.772 317.312 52.3384 317.058 53.1099 317.058C53.8748 317.058 54.438 317.304 54.7993 317.796C55.1607 318.284 55.3462 319.039 55.356 320.061V321.233ZM54.4526 319.998C54.4526 319.233 54.3452 318.676 54.1304 318.328C53.9155 317.976 53.5754 317.801 53.1099 317.801C52.6476 317.801 52.3107 317.975 52.0991 318.323C51.8875 318.671 51.7785 319.207 51.772 319.929V321.375C51.772 322.143 51.8827 322.711 52.104 323.079C52.3286 323.443 52.6672 323.626 53.1196 323.626C53.5656 323.626 53.896 323.453 54.1108 323.108C54.3289 322.763 54.4429 322.219 54.4526 321.477V319.998ZM60.9712 321.233C60.9712 322.291 60.7905 323.077 60.4292 323.592C60.0679 324.106 59.5031 324.363 58.7349 324.363C57.9764 324.363 57.4149 324.112 57.0503 323.611C56.6857 323.107 56.4969 322.355 56.4839 321.355V320.149C56.4839 319.104 56.6646 318.328 57.0259 317.82C57.3872 317.312 57.9536 317.058 58.7251 317.058C59.4901 317.058 60.0532 317.304 60.4146 317.796C60.7759 318.284 60.9614 319.039 60.9712 320.061V321.233ZM60.0679 319.998C60.0679 319.233 59.9605 318.676 59.7456 318.328C59.5308 317.976 59.1906 317.801 58.7251 317.801C58.2629 317.801 57.926 317.975 57.7144 318.323C57.5028 318.671 57.3937 319.207 57.3872 319.929V321.375C57.3872 322.143 57.4979 322.711 57.7192 323.079C57.9439 323.443 58.2824 323.626 58.7349 323.626C59.1808 323.626 59.5112 323.453 59.7261 323.108C59.9442 322.763 60.0581 322.219 60.0679 321.477V319.998ZM66.5864 321.233C66.5864 322.291 66.4058 323.077 66.0444 323.592C65.6831 324.106 65.1183 324.363 64.3501 324.363C63.5916 324.363 63.0301 324.112 62.6655 323.611C62.301 323.107 62.1121 322.355 62.0991 321.355V320.149C62.0991 319.104 62.2798 318.328 62.6411 317.82C63.0024 317.312 63.5689 317.058 64.3403 317.058C65.1053 317.058 65.6685 317.304 66.0298 317.796C66.3911 318.284 66.5767 319.039 66.5864 320.061V321.233ZM65.6831 319.998C65.6831 319.233 65.5757 318.676 65.3608 318.328C65.146 317.976 64.8058 317.801 64.3403 317.801C63.8781 317.801 63.5412 317.975 63.3296 318.323C63.118 318.671 63.009 319.207 63.0024 319.929V321.375C63.0024 322.143 63.1131 322.711 63.3345 323.079C63.5591 323.443 63.8976 323.626 64.3501 323.626C64.7961 323.626 65.1265 323.453 65.3413 323.108C65.5594 322.763 65.6733 322.219 65.6831 321.477V319.998Z" fill="url(#paint2_linear)"/>
<path d="M40.0825 275.448L40.4439 271.903H44.0864V272.738H41.2105L40.9956 274.676C41.3439 274.471 41.7394 274.369 42.1821 274.369C42.8299 274.369 43.3442 274.584 43.7251 275.013C44.106 275.44 44.2964 276.017 44.2964 276.747C44.2964 277.479 44.0978 278.057 43.7007 278.48C43.3068 278.9 42.7551 279.11 42.0454 279.11C41.4172 279.11 40.9045 278.936 40.5073 278.587C40.1102 278.239 39.884 277.757 39.8286 277.142H40.6831C40.7385 277.549 40.8833 277.857 41.1177 278.065C41.3521 278.27 41.6613 278.373 42.0454 278.373C42.4653 278.373 42.7941 278.229 43.0317 277.943C43.2726 277.656 43.3931 277.261 43.3931 276.756C43.3931 276.281 43.2629 275.9 43.0024 275.614C42.7453 275.324 42.4019 275.179 41.9722 275.179C41.5783 275.179 41.2691 275.266 41.0444 275.438L40.8052 275.633L40.0825 275.448ZM49.7407 275.98C49.7407 277.038 49.5601 277.824 49.1987 278.338C48.8374 278.853 48.2726 279.11 47.5044 279.11C46.7459 279.11 46.1844 278.859 45.8198 278.358C45.4552 277.853 45.2664 277.101 45.2534 276.102V274.896C45.2534 273.851 45.4341 273.075 45.7954 272.567C46.1567 272.059 46.7232 271.805 47.4946 271.805C48.2596 271.805 48.8228 272.051 49.1841 272.543C49.5454 273.031 49.731 273.786 49.7407 274.808V275.98ZM48.8374 274.745C48.8374 273.98 48.73 273.423 48.5151 273.075C48.3003 272.723 47.9601 272.547 47.4946 272.547C47.0324 272.547 46.6955 272.722 46.4839 273.07C46.2723 273.418 46.1633 273.954 46.1567 274.676V276.122C46.1567 276.89 46.2674 277.458 46.4888 277.826C46.7134 278.19 47.0519 278.373 47.5044 278.373C47.9504 278.373 48.2808 278.2 48.4956 277.855C48.7137 277.51 48.8276 276.966 48.8374 276.224V274.745ZM55.356 275.98C55.356 277.038 55.1753 277.824 54.814 278.338C54.4526 278.853 53.8879 279.11 53.1196 279.11C52.3612 279.11 51.7996 278.859 51.4351 278.358C51.0705 277.853 50.8817 277.101 50.8687 276.102V274.896C50.8687 273.851 51.0493 273.075 51.4107 272.567C51.772 272.059 52.3384 271.805 53.1099 271.805C53.8748 271.805 54.438 272.051 54.7993 272.543C55.1607 273.031 55.3462 273.786 55.356 274.808V275.98ZM54.4526 274.745C54.4526 273.98 54.3452 273.423 54.1304 273.075C53.9155 272.723 53.5754 272.547 53.1099 272.547C52.6476 272.547 52.3107 272.722 52.0991 273.07C51.8875 273.418 51.7785 273.954 51.772 274.676V276.122C51.772 276.89 51.8827 277.458 52.104 277.826C52.3286 278.19 52.6672 278.373 53.1196 278.373C53.5656 278.373 53.896 278.2 54.1108 277.855C54.3289 277.51 54.4429 276.966 54.4526 276.224V274.745ZM60.9712 275.98C60.9712 277.038 60.7905 277.824 60.4292 278.338C60.0679 278.853 59.5031 279.11 58.7349 279.11C57.9764 279.11 57.4149 278.859 57.0503 278.358C56.6857 277.853 56.4969 277.101 56.4839 276.102V274.896C56.4839 273.851 56.6646 273.075 57.0259 272.567C57.3872 272.059 57.9536 271.805 58.7251 271.805C59.4901 271.805 60.0532 272.051 60.4146 272.543C60.7759 273.031 60.9614 273.786 60.9712 274.808V275.98ZM60.0679 274.745C60.0679 273.98 59.9605 273.423 59.7456 273.075C59.5308 272.723 59.1906 272.547 58.7251 272.547C58.2629 272.547 57.926 272.722 57.7144 273.07C57.5028 273.418 57.3937 273.954 57.3872 274.676V276.122C57.3872 276.89 57.4979 277.458 57.7192 277.826C57.9439 278.19 58.2824 278.373 58.7349 278.373C59.1808 278.373 59.5112 278.2 59.7261 277.855C59.9442 277.51 60.0581 276.966 60.0679 276.224V274.745ZM66.5864 275.98C66.5864 277.038 66.4058 277.824 66.0444 278.338C65.6831 278.853 65.1183 279.11 64.3501 279.11C63.5916 279.11 63.0301 278.859 62.6655 278.358C62.301 277.853 62.1121 277.101 62.0991 276.102V274.896C62.0991 273.851 62.2798 273.075 62.6411 272.567C63.0024 272.059 63.5689 271.805 64.3403 271.805C65.1053 271.805 65.6685 272.051 66.0298 272.543C66.3911 273.031 66.5767 273.786 66.5864 274.808V275.98ZM65.6831 274.745C65.6831 273.98 65.5757 273.423 65.3608 273.075C65.146 272.723 64.8058 272.547 64.3403 272.547C63.8781 272.547 63.5412 272.722 63.3296 273.07C63.118 273.418 63.009 273.954 63.0024 274.676V276.122C63.0024 276.89 63.1131 277.458 63.3345 277.826C63.5591 278.19 63.8976 278.373 64.3501 278.373C64.7961 278.373 65.1265 278.2 65.3413 277.855C65.5594 277.51 65.6733 276.966 65.6831 276.224V274.745Z" fill="url(#paint3_linear)"/>
<path d="M43.979 228.505C43.979 228.86 43.8846 229.176 43.6958 229.453C43.5103 229.729 43.258 229.946 42.939 230.102C43.3101 230.261 43.603 230.494 43.8179 230.8C44.036 231.106 44.145 231.453 44.145 231.84C44.145 232.456 43.9367 232.945 43.52 233.31C43.1066 233.675 42.5614 233.857 41.8843 233.857C41.2007 233.857 40.6522 233.675 40.2388 233.31C39.8286 232.942 39.6235 232.452 39.6235 231.84C39.6235 231.456 39.7277 231.109 39.936 230.8C40.1476 230.491 40.439 230.257 40.8101 230.097C40.4943 229.941 40.2453 229.724 40.063 229.448C39.8807 229.171 39.7896 228.857 39.7896 228.505C39.7896 227.906 39.9816 227.431 40.3657 227.08C40.7498 226.728 41.256 226.552 41.8843 226.552C42.5093 226.552 43.0138 226.728 43.398 227.08C43.7853 227.431 43.979 227.906 43.979 228.505ZM43.2417 231.821C43.2417 231.424 43.1148 231.1 42.8608 230.849C42.6102 230.598 42.2814 230.473 41.8745 230.473C41.4676 230.473 41.1405 230.597 40.8931 230.844C40.6489 231.092 40.5269 231.417 40.5269 231.821C40.5269 232.224 40.6457 232.542 40.8833 232.773C41.1242 233.004 41.4579 233.12 41.8843 233.12C42.3075 233.12 42.6395 233.004 42.8804 232.773C43.1213 232.539 43.2417 232.221 43.2417 231.821ZM41.8843 227.294C41.5295 227.294 41.2414 227.405 41.02 227.626C40.8019 227.845 40.6929 228.142 40.6929 228.52C40.6929 228.881 40.8003 229.174 41.0151 229.399C41.2332 229.62 41.523 229.731 41.8843 229.731C42.2456 229.731 42.5337 229.62 42.7485 229.399C42.9666 229.174 43.0757 228.881 43.0757 228.52C43.0757 228.159 42.9634 227.864 42.7388 227.636C42.5142 227.408 42.2293 227.294 41.8843 227.294ZM49.7407 230.727C49.7407 231.785 49.5601 232.571 49.1987 233.085C48.8374 233.6 48.2726 233.857 47.5044 233.857C46.7459 233.857 46.1844 233.606 45.8198 233.105C45.4552 232.6 45.2664 231.848 45.2534 230.849V229.643C45.2534 228.598 45.4341 227.822 45.7954 227.314C46.1567 226.806 46.7232 226.552 47.4946 226.552C48.2596 226.552 48.8228 226.798 49.1841 227.289C49.5454 227.778 49.731 228.533 49.7407 229.555V230.727ZM48.8374 229.492C48.8374 228.727 48.73 228.17 48.5151 227.822C48.3003 227.47 47.9601 227.294 47.4946 227.294C47.0324 227.294 46.6955 227.469 46.4839 227.817C46.2723 228.165 46.1633 228.701 46.1567 229.423V230.869C46.1567 231.637 46.2674 232.205 46.4888 232.573C46.7134 232.937 47.0519 233.12 47.5044 233.12C47.9504 233.12 48.2808 232.947 48.4956 232.602C48.7137 232.257 48.8276 231.713 48.8374 230.971V229.492ZM55.356 230.727C55.356 231.785 55.1753 232.571 54.814 233.085C54.4526 233.6 53.8879 233.857 53.1196 233.857C52.3612 233.857 51.7996 233.606 51.4351 233.105C51.0705 232.6 50.8817 231.848 50.8687 230.849V229.643C50.8687 228.598 51.0493 227.822 51.4107 227.314C51.772 226.806 52.3384 226.552 53.1099 226.552C53.8748 226.552 54.438 226.798 54.7993 227.289C55.1607 227.778 55.3462 228.533 55.356 229.555V230.727ZM54.4526 229.492C54.4526 228.727 54.3452 228.17 54.1304 227.822C53.9155 227.47 53.5754 227.294 53.1099 227.294C52.6476 227.294 52.3107 227.469 52.0991 227.817C51.8875 228.165 51.7785 228.701 51.772 229.423V230.869C51.772 231.637 51.8827 232.205 52.104 232.573C52.3286 232.937 52.6672 233.12 53.1196 233.12C53.5656 233.12 53.896 232.947 54.1108 232.602C54.3289 232.257 54.4429 231.713 54.4526 230.971V229.492ZM60.9712 230.727C60.9712 231.785 60.7905 232.571 60.4292 233.085C60.0679 233.6 59.5031 233.857 58.7349 233.857C57.9764 233.857 57.4149 233.606 57.0503 233.105C56.6857 232.6 56.4969 231.848 56.4839 230.849V229.643C56.4839 228.598 56.6646 227.822 57.0259 227.314C57.3872 226.806 57.9536 226.552 58.7251 226.552C59.4901 226.552 60.0532 226.798 60.4146 227.289C60.7759 227.778 60.9614 228.533 60.9712 229.555V230.727ZM60.0679 229.492C60.0679 228.727 59.9605 228.17 59.7456 227.822C59.5308 227.47 59.1906 227.294 58.7251 227.294C58.2629 227.294 57.926 227.469 57.7144 227.817C57.5028 228.165 57.3937 228.701 57.3872 229.423V230.869C57.3872 231.637 57.4979 232.205 57.7192 232.573C57.9439 232.937 58.2824 233.12 58.7349 233.12C59.1808 233.12 59.5112 232.947 59.7261 232.602C59.9442 232.257 60.0581 231.713 60.0679 230.971V229.492ZM66.5864 230.727C66.5864 231.785 66.4058 232.571 66.0444 233.085C65.6831 233.6 65.1183 233.857 64.3501 233.857C63.5916 233.857 63.0301 233.606 62.6655 233.105C62.301 232.6 62.1121 231.848 62.0991 230.849V229.643C62.0991 228.598 62.2798 227.822 62.6411 227.314C63.0024 226.806 63.5689 226.552 64.3403 226.552C65.1053 226.552 65.6685 226.798 66.0298 227.289C66.3911 227.778 66.5767 228.533 66.5864 229.555V230.727ZM65.6831 229.492C65.6831 228.727 65.5757 228.17 65.3608 227.822C65.146 227.47 64.8058 227.294 64.3403 227.294C63.8781 227.294 63.5412 227.469 63.3296 227.817C63.118 228.165 63.009 228.701 63.0024 229.423V230.869C63.0024 231.637 63.1131 232.205 63.3345 232.573C63.5591 232.937 63.8976 233.12 64.3501 233.12C64.7961 233.12 65.1265 232.947 65.3413 232.602C65.5594 232.257 65.6733 231.713 65.6831 230.971V229.492Z" fill="url(#paint4_linear)"/>
<path d="M37.021 188.506H36.1128V182.486L34.2915 183.155V182.334L36.8794 181.363H37.021V188.506ZM44.1255 185.474C44.1255 186.532 43.9448 187.318 43.5835 187.832C43.2222 188.347 42.6574 188.604 41.8892 188.604C41.1307 188.604 40.5692 188.353 40.2046 187.852C39.84 187.347 39.6512 186.595 39.6382 185.596V184.39C39.6382 183.345 39.8189 182.569 40.1802 182.061C40.5415 181.553 41.1079 181.299 41.8794 181.299C42.6444 181.299 43.2075 181.545 43.5689 182.036C43.9302 182.525 44.1157 183.28 44.1255 184.302V185.474ZM43.2222 184.239C43.2222 183.474 43.1148 182.917 42.8999 182.569C42.6851 182.217 42.3449 182.041 41.8794 182.041C41.4172 182.041 41.0802 182.215 40.8687 182.564C40.6571 182.912 40.548 183.448 40.5415 184.17V185.616C40.5415 186.384 40.6522 186.952 40.8735 187.32C41.0982 187.684 41.4367 187.867 41.8892 187.867C42.3351 187.867 42.6655 187.694 42.8804 187.349C43.0985 187.004 43.2124 186.46 43.2222 185.718V184.239ZM49.7407 185.474C49.7407 186.532 49.5601 187.318 49.1987 187.832C48.8374 188.347 48.2726 188.604 47.5044 188.604C46.7459 188.604 46.1844 188.353 45.8198 187.852C45.4552 187.347 45.2664 186.595 45.2534 185.596V184.39C45.2534 183.345 45.4341 182.569 45.7954 182.061C46.1567 181.553 46.7232 181.299 47.4946 181.299C48.2596 181.299 48.8228 181.545 49.1841 182.036C49.5454 182.525 49.731 183.28 49.7407 184.302V185.474ZM48.8374 184.239C48.8374 183.474 48.73 182.917 48.5151 182.569C48.3003 182.217 47.9601 182.041 47.4946 182.041C47.0324 182.041 46.6955 182.215 46.4839 182.564C46.2723 182.912 46.1633 183.448 46.1567 184.17V185.616C46.1567 186.384 46.2674 186.952 46.4888 187.32C46.7134 187.684 47.0519 187.867 47.5044 187.867C47.9504 187.867 48.2808 187.694 48.4956 187.349C48.7137 187.004 48.8276 186.46 48.8374 185.718V184.239ZM55.356 185.474C55.356 186.532 55.1753 187.318 54.814 187.832C54.4526 188.347 53.8879 188.604 53.1196 188.604C52.3612 188.604 51.7996 188.353 51.4351 187.852C51.0705 187.347 50.8817 186.595 50.8687 185.596V184.39C50.8687 183.345 51.0493 182.569 51.4107 182.061C51.772 181.553 52.3384 181.299 53.1099 181.299C53.8748 181.299 54.438 181.545 54.7993 182.036C55.1607 182.525 55.3462 183.28 55.356 184.302V185.474ZM54.4526 184.239C54.4526 183.474 54.3452 182.917 54.1304 182.569C53.9155 182.217 53.5754 182.041 53.1099 182.041C52.6476 182.041 52.3107 182.215 52.0991 182.564C51.8875 182.912 51.7785 183.448 51.772 184.17V185.616C51.772 186.384 51.8827 186.952 52.104 187.32C52.3286 187.684 52.6672 187.867 53.1196 187.867C53.5656 187.867 53.896 187.694 54.1108 187.349C54.3289 187.004 54.4429 186.46 54.4526 185.718V184.239ZM60.9712 185.474C60.9712 186.532 60.7905 187.318 60.4292 187.832C60.0679 188.347 59.5031 188.604 58.7349 188.604C57.9764 188.604 57.4149 188.353 57.0503 187.852C56.6857 187.347 56.4969 186.595 56.4839 185.596V184.39C56.4839 183.345 56.6646 182.569 57.0259 182.061C57.3872 181.553 57.9536 181.299 58.7251 181.299C59.4901 181.299 60.0532 181.545 60.4146 182.036C60.7759 182.525 60.9614 183.28 60.9712 184.302V185.474ZM60.0679 184.239C60.0679 183.474 59.9605 182.917 59.7456 182.569C59.5308 182.217 59.1906 182.041 58.7251 182.041C58.2629 182.041 57.926 182.215 57.7144 182.564C57.5028 182.912 57.3937 183.448 57.3872 184.17V185.616C57.3872 186.384 57.4979 186.952 57.7192 187.32C57.9439 187.684 58.2824 187.867 58.7349 187.867C59.1808 187.867 59.5112 187.694 59.7261 187.349C59.9442 187.004 60.0581 186.46 60.0679 185.718V184.239ZM66.5864 185.474C66.5864 186.532 66.4058 187.318 66.0444 187.832C65.6831 188.347 65.1183 188.604 64.3501 188.604C63.5916 188.604 63.0301 188.353 62.6655 187.852C62.301 187.347 62.1121 186.595 62.0991 185.596V184.39C62.0991 183.345 62.2798 182.569 62.6411 182.061C63.0024 181.553 63.5689 181.299 64.3403 181.299C65.1053 181.299 65.6685 181.545 66.0298 182.036C66.3911 182.525 66.5767 183.28 66.5864 184.302V185.474ZM65.6831 184.239C65.6831 183.474 65.5757 182.917 65.3608 182.569C65.146 182.217 64.8058 182.041 64.3403 182.041C63.8781 182.041 63.5412 182.215 63.3296 182.564C63.118 182.912 63.009 183.448 63.0024 184.17V185.616C63.0024 186.384 63.1131 186.952 63.3345 187.32C63.5591 187.684 63.8976 187.867 64.3501 187.867C64.7961 187.867 65.1265 187.694 65.3413 187.349C65.5594 187.004 65.6733 186.46 65.6831 185.718V184.239Z" fill="url(#paint5_linear)"/>
<path d="M37.021 143.253H36.1128V137.233L34.2915 137.901V137.081L36.8794 136.109H37.021V143.253ZM44.3257 143.253H39.6675V142.604L42.1284 139.869C42.493 139.456 42.7437 139.121 42.8804 138.863C43.0204 138.603 43.0903 138.334 43.0903 138.058C43.0903 137.687 42.978 137.382 42.7534 137.145C42.5288 136.907 42.2293 136.788 41.855 136.788C41.4058 136.788 41.0558 136.917 40.8052 137.174C40.5578 137.428 40.4341 137.783 40.4341 138.238H39.5308C39.5308 137.584 39.7407 137.055 40.1607 136.651C40.5838 136.248 41.1486 136.046 41.855 136.046C42.5158 136.046 43.0383 136.22 43.4224 136.568C43.8065 136.914 43.9985 137.374 43.9985 137.95C43.9985 138.65 43.5526 139.484 42.6607 140.45L40.7564 142.516H44.3257V143.253ZM49.7407 140.221C49.7407 141.279 49.5601 142.065 49.1987 142.579C48.8374 143.094 48.2726 143.351 47.5044 143.351C46.7459 143.351 46.1844 143.1 45.8198 142.599C45.4552 142.094 45.2664 141.342 45.2534 140.343V139.137C45.2534 138.092 45.4341 137.316 45.7954 136.808C46.1567 136.3 46.7232 136.046 47.4946 136.046C48.2596 136.046 48.8228 136.292 49.1841 136.783C49.5454 137.272 49.731 138.027 49.7407 139.049V140.221ZM48.8374 138.985C48.8374 138.22 48.73 137.664 48.5151 137.316C48.3003 136.964 47.9601 136.788 47.4946 136.788C47.0324 136.788 46.6955 136.962 46.4839 137.311C46.2723 137.659 46.1633 138.194 46.1567 138.917V140.362C46.1567 141.131 46.2674 141.699 46.4888 142.067C46.7134 142.431 47.0519 142.613 47.5044 142.613C47.9504 142.613 48.2808 142.441 48.4956 142.096C48.7137 141.751 48.8276 141.207 48.8374 140.465V138.985ZM55.356 140.221C55.356 141.279 55.1753 142.065 54.814 142.579C54.4526 143.094 53.8879 143.351 53.1196 143.351C52.3612 143.351 51.7996 143.1 51.4351 142.599C51.0705 142.094 50.8817 141.342 50.8687 140.343V139.137C50.8687 138.092 51.0493 137.316 51.4107 136.808C51.772 136.3 52.3384 136.046 53.1099 136.046C53.8748 136.046 54.438 136.292 54.7993 136.783C55.1607 137.272 55.3462 138.027 55.356 139.049V140.221ZM54.4526 138.985C54.4526 138.22 54.3452 137.664 54.1304 137.316C53.9155 136.964 53.5754 136.788 53.1099 136.788C52.6476 136.788 52.3107 136.962 52.0991 137.311C51.8875 137.659 51.7785 138.194 51.772 138.917V140.362C51.772 141.131 51.8827 141.699 52.104 142.067C52.3286 142.431 52.6672 142.613 53.1196 142.613C53.5656 142.613 53.896 142.441 54.1108 142.096C54.3289 141.751 54.4429 141.207 54.4526 140.465V138.985ZM60.9712 140.221C60.9712 141.279 60.7905 142.065 60.4292 142.579C60.0679 143.094 59.5031 143.351 58.7349 143.351C57.9764 143.351 57.4149 143.1 57.0503 142.599C56.6857 142.094 56.4969 141.342 56.4839 140.343V139.137C56.4839 138.092 56.6646 137.316 57.0259 136.808C57.3872 136.3 57.9536 136.046 58.7251 136.046C59.4901 136.046 60.0532 136.292 60.4146 136.783C60.7759 137.272 60.9614 138.027 60.9712 139.049V140.221ZM60.0679 138.985C60.0679 138.22 59.9605 137.664 59.7456 137.316C59.5308 136.964 59.1906 136.788 58.7251 136.788C58.2629 136.788 57.926 136.962 57.7144 137.311C57.5028 137.659 57.3937 138.194 57.3872 138.917V140.362C57.3872 141.131 57.4979 141.699 57.7192 142.067C57.9439 142.431 58.2824 142.613 58.7349 142.613C59.1808 142.613 59.5112 142.441 59.7261 142.096C59.9442 141.751 60.0581 141.207 60.0679 140.465V138.985ZM66.5864 140.221C66.5864 141.279 66.4058 142.065 66.0444 142.579C65.6831 143.094 65.1183 143.351 64.3501 143.351C63.5916 143.351 63.0301 143.1 62.6655 142.599C62.301 142.094 62.1121 141.342 62.0991 140.343V139.137C62.0991 138.092 62.2798 137.316 62.6411 136.808C63.0024 136.3 63.5689 136.046 64.3403 136.046C65.1053 136.046 65.6685 136.292 66.0298 136.783C66.3911 137.272 66.5767 138.027 66.5864 139.049V140.221ZM65.6831 138.985C65.6831 138.22 65.5757 137.664 65.3608 137.316C65.146 136.964 64.8058 136.788 64.3403 136.788C63.8781 136.788 63.5412 136.962 63.3296 137.311C63.118 137.659 63.009 138.194 63.0024 138.917V140.362C63.0024 141.131 63.1131 141.699 63.3345 142.067C63.5591 142.431 63.8976 142.613 64.3501 142.613C64.7961 142.613 65.1265 142.441 65.3413 142.096C65.5594 141.751 65.6733 141.207 65.6831 140.465V138.985Z" fill="url(#paint6_linear)"/>
<path d="M37.021 104H36.1128V97.9795L34.2915 98.6484V97.8281L36.8794 96.8564H37.021V104ZM43.2124 96.8857V97.6523H43.0464C42.3433 97.6654 41.7834 97.8737 41.3667 98.2773C40.95 98.681 40.7092 99.249 40.6441 99.9814C41.0184 99.5518 41.5295 99.3369 42.1773 99.3369C42.7957 99.3369 43.2889 99.555 43.6567 99.9912C44.0278 100.427 44.2134 100.991 44.2134 101.681C44.2134 102.413 44.0132 102.999 43.6128 103.438C43.2157 103.878 42.6818 104.098 42.0112 104.098C41.3309 104.098 40.7791 103.837 40.356 103.316C39.9328 102.792 39.7212 102.118 39.7212 101.295V100.948C39.7212 99.6396 39.9995 98.6403 40.5562 97.9502C41.1161 97.2568 41.9478 96.902 43.0513 96.8857H43.2124ZM42.0259 100.089C41.7166 100.089 41.4318 100.182 41.1714 100.367C40.911 100.553 40.7303 100.785 40.6294 101.065V101.397C40.6294 101.983 40.7612 102.455 41.0249 102.813C41.2886 103.172 41.6174 103.351 42.0112 103.351C42.4181 103.351 42.7371 103.201 42.9683 102.901C43.2026 102.602 43.3198 102.21 43.3198 101.725C43.3198 101.236 43.201 100.842 42.9634 100.543C42.729 100.24 42.4165 100.089 42.0259 100.089ZM49.7407 100.968C49.7407 102.026 49.5601 102.812 49.1987 103.326C48.8374 103.84 48.2726 104.098 47.5044 104.098C46.7459 104.098 46.1844 103.847 45.8198 103.346C45.4552 102.841 45.2664 102.089 45.2534 101.09V99.8838C45.2534 98.8389 45.4341 98.0625 45.7954 97.5547C46.1567 97.0469 46.7232 96.793 47.4946 96.793C48.2596 96.793 48.8228 97.0387 49.1841 97.5303C49.5454 98.0186 49.731 98.7738 49.7407 99.7959V100.968ZM48.8374 99.7324C48.8374 98.9674 48.73 98.4108 48.5151 98.0625C48.3003 97.7109 47.9601 97.5352 47.4946 97.5352C47.0324 97.5352 46.6955 97.7093 46.4839 98.0576C46.2723 98.4059 46.1633 98.9414 46.1567 99.6641V101.109C46.1567 101.878 46.2674 102.446 46.4888 102.813C46.7134 103.178 47.0519 103.36 47.5044 103.36C47.9504 103.36 48.2808 103.188 48.4956 102.843C48.7137 102.498 48.8276 101.954 48.8374 101.212V99.7324ZM55.356 100.968C55.356 102.026 55.1753 102.812 54.814 103.326C54.4526 103.84 53.8879 104.098 53.1196 104.098C52.3612 104.098 51.7996 103.847 51.4351 103.346C51.0705 102.841 50.8817 102.089 50.8687 101.09V99.8838C50.8687 98.8389 51.0493 98.0625 51.4107 97.5547C51.772 97.0469 52.3384 96.793 53.1099 96.793C53.8748 96.793 54.438 97.0387 54.7993 97.5303C55.1607 98.0186 55.3462 98.7738 55.356 99.7959V100.968ZM54.4526 99.7324C54.4526 98.9674 54.3452 98.4108 54.1304 98.0625C53.9155 97.7109 53.5754 97.5352 53.1099 97.5352C52.6476 97.5352 52.3107 97.7093 52.0991 98.0576C51.8875 98.4059 51.7785 98.9414 51.772 99.6641V101.109C51.772 101.878 51.8827 102.446 52.104 102.813C52.3286 103.178 52.6672 103.36 53.1196 103.36C53.5656 103.36 53.896 103.188 54.1108 102.843C54.3289 102.498 54.4429 101.954 54.4526 101.212V99.7324ZM60.9712 100.968C60.9712 102.026 60.7905 102.812 60.4292 103.326C60.0679 103.84 59.5031 104.098 58.7349 104.098C57.9764 104.098 57.4149 103.847 57.0503 103.346C56.6857 102.841 56.4969 102.089 56.4839 101.09V99.8838C56.4839 98.8389 56.6646 98.0625 57.0259 97.5547C57.3872 97.0469 57.9536 96.793 58.7251 96.793C59.4901 96.793 60.0532 97.0387 60.4146 97.5303C60.7759 98.0186 60.9614 98.7738 60.9712 99.7959V100.968ZM60.0679 99.7324C60.0679 98.9674 59.9605 98.4108 59.7456 98.0625C59.5308 97.7109 59.1906 97.5352 58.7251 97.5352C58.2629 97.5352 57.926 97.7093 57.7144 98.0576C57.5028 98.4059 57.3937 98.9414 57.3872 99.6641V101.109C57.3872 101.878 57.4979 102.446 57.7192 102.813C57.9439 103.178 58.2824 103.36 58.7349 103.36C59.1808 103.36 59.5112 103.188 59.7261 102.843C59.9442 102.498 60.0581 101.954 60.0679 101.212V99.7324ZM66.5864 100.968C66.5864 102.026 66.4058 102.812 66.0444 103.326C65.6831 103.84 65.1183 104.098 64.3501 104.098C63.5916 104.098 63.0301 103.847 62.6655 103.346C62.301 102.841 62.1121 102.089 62.0991 101.09V99.8838C62.0991 98.8389 62.2798 98.0625 62.6411 97.5547C63.0024 97.0469 63.5689 96.793 64.3403 96.793C65.1053 96.793 65.6685 97.0387 66.0298 97.5303C66.3911 98.0186 66.5767 98.7738 66.5864 99.7959V100.968ZM65.6831 99.7324C65.6831 98.9674 65.5757 98.4108 65.3608 98.0625C65.146 97.7109 64.8058 97.5352 64.3403 97.5352C63.8781 97.5352 63.5412 97.7093 63.3296 98.0576C63.118 98.4059 63.009 98.9414 63.0024 99.6641V101.109C63.0024 101.878 63.1131 102.446 63.3345 102.813C63.5591 103.178 63.8976 103.36 64.3501 103.36C64.7961 103.36 65.1265 103.188 65.3413 102.843C65.5594 102.498 65.6733 101.954 65.6831 101.212V99.7324Z" fill="url(#paint7_linear)"/>
<path d="M79.0317 411.383H1138.03" stroke="#F0F0F0"/>
<path d="M79.0317 366.383H1138.03" stroke="#F0F0F0"/>
<path d="M79.0317 321.383H1138.03" stroke="#F0F0F0"/>
<path d="M79.0317 276.383H1138.03" stroke="#F0F0F0"/>
<path d="M79.0317 230.383H1138.03" stroke="#F0F0F0"/>
<path d="M79.0317 185.383H1138.03" stroke="#F0F0F0"/>
<path d="M79.0317 140.383H1138.03" stroke="#F0F0F0"/>
<path d="M79.0317 101.383H1138.03" stroke="#F0F0F0"/>
<g clip-path="url(#clip0)">
<path d="M97.5049 117.44C97.5049 115.162 97.5049 114.023 97.9552 113.156C98.3347 112.426 98.9304 111.83 99.661 111.45C100.528 111 101.667 111 103.945 111H135.065C137.343 111 138.482 111 139.349 111.45C140.079 111.83 140.675 112.426 141.055 113.156C141.505 114.023 141.505 115.162 141.505 117.44V411H97.5049V117.44Z" fill="url(#paint8_linear)"/>
<path d="M165.505 161.44C165.505 159.162 165.505 158.023 165.955 157.156C166.335 156.426 166.93 155.83 167.661 155.45C168.528 155 169.667 155 171.945 155H203.065C205.343 155 206.482 155 207.349 155.45C208.079 155.83 208.675 156.426 209.055 157.156C209.505 158.023 209.505 159.162 209.505 161.44V411H165.505V161.44Z" fill="url(#paint9_linear)"/>
<path d="M233.505 199.44C233.505 197.162 233.505 196.023 233.955 195.156C234.335 194.426 234.93 193.83 235.661 193.45C236.528 193 237.667 193 239.945 193H272.065C274.343 193 275.482 193 276.349 193.45C277.079 193.83 277.675 194.426 278.055 195.156C278.505 196.023 278.505 197.162 278.505 199.44V411H233.505V199.44Z" fill="url(#paint10_linear)"/>
<path d="M302.505 232.44C302.505 230.162 302.505 229.023 302.955 228.156C303.335 227.426 303.93 226.83 304.661 226.45C305.528 226 306.667 226 308.945 226H341.065C343.343 226 344.482 226 345.349 226.45C346.079 226.83 346.675 227.426 347.055 228.156C347.505 229.023 347.505 230.162 347.505 232.44V411H302.505V232.44Z" fill="url(#paint11_linear)"/>
<path d="M371.505 232.44C371.505 230.162 371.505 229.023 371.955 228.156C372.335 227.426 372.93 226.83 373.661 226.45C374.528 226 375.667 226 377.945 226H410.065C412.343 226 413.482 226 414.349 226.45C415.079 226.83 415.675 227.426 416.055 228.156C416.505 229.023 416.505 230.162 416.505 232.44V411H371.505V232.44Z" fill="url(#paint12_linear)"/>
<path d="M440.505 244.44C440.505 242.162 440.505 241.023 440.955 240.156C441.335 239.426 441.93 238.83 442.661 238.45C443.528 238 444.667 238 446.945 238H480.065C482.343 238 483.482 238 484.349 238.45C485.079 238.83 485.675 239.426 486.055 240.156C486.505 241.023 486.505 242.162 486.505 244.44V411H440.505V244.44Z" fill="url(#paint13_linear)"/>
<path d="M510.505 244.44C510.505 242.162 510.505 241.023 510.955 240.156C511.335 239.426 511.93 238.83 512.661 238.45C513.528 238 514.667 238 516.945 238H549.065C551.343 238 552.482 238 553.349 238.45C554.079 238.83 554.675 239.426 555.055 240.156C555.505 241.023 555.505 242.162 555.505 244.44V411H510.505V244.44Z" fill="url(#paint14_linear)"/>
<path d="M579.505 270.44C579.505 268.162 579.505 267.023 579.955 266.156C580.335 265.426 580.93 264.83 581.661 264.45C582.528 264 583.667 264 585.945 264H617.065C619.343 264 620.482 264 621.349 264.45C622.079 264.83 622.675 265.426 623.055 266.156C623.505 267.023 623.505 268.162 623.505 270.44V411H579.505V270.44Z" fill="url(#paint15_linear)"/>
<path d="M647.505 270.44C647.505 268.162 647.505 267.023 647.955 266.156C648.335 265.426 648.93 264.83 649.661 264.45C650.528 264 651.667 264 653.945 264H685.065C687.343 264 688.482 264 689.349 264.45C690.079 264.83 690.675 265.426 691.055 266.156C691.505 267.023 691.505 268.162 691.505 270.44V411H647.505V270.44Z" fill="url(#paint16_linear)"/>
<path d="M715.505 301.44C715.505 299.162 715.505 298.023 715.955 297.156C716.335 296.426 716.93 295.83 717.661 295.45C718.528 295 719.667 295 721.945 295H753.065C755.343 295 756.482 295 757.349 295.45C758.079 295.83 758.675 296.426 759.055 297.156C759.505 298.023 759.505 299.162 759.505 301.44V411H715.505V301.44Z" fill="url(#paint17_linear)"/>
<path d="M783.505 320.44C783.505 318.162 783.505 317.023 783.955 316.156C784.335 315.426 784.93 314.83 785.661 314.45C786.528 314 787.667 314 789.945 314H822.065C824.343 314 825.482 314 826.349 314.45C827.079 314.83 827.675 315.426 828.055 316.156C828.505 317.023 828.505 318.162 828.505 320.44V411H783.505V320.44Z" fill="url(#paint18_linear)"/>
<path d="M852.505 330.44C852.505 328.162 852.505 327.023 852.955 326.156C853.335 325.426 853.93 324.83 854.661 324.45C855.528 324 856.667 324 858.945 324H890.065C892.343 324 893.482 324 894.349 324.45C895.079 324.83 895.675 325.426 896.055 326.156C896.505 327.023 896.505 328.162 896.505 330.44V411H852.505V330.44Z" fill="url(#paint19_linear)"/>
<path d="M920.505 330.44C920.505 328.162 920.505 327.023 920.955 326.156C921.335 325.426 921.93 324.83 922.661 324.45C923.528 324 924.667 324 926.945 324H958.065C960.343 324 961.482 324 962.349 324.45C963.079 324.83 963.675 325.426 964.055 326.156C964.505 327.023 964.505 328.162 964.505 330.44V411H920.505V330.44Z" fill="url(#paint20_linear)"/>
<path d="M988.505 362.44C988.505 360.162 988.505 359.023 988.955 358.156C989.335 357.426 989.93 356.83 990.661 356.45C991.528 356 992.667 356 994.945 356H1027.06C1029.34 356 1030.48 356 1031.35 356.45C1032.08 356.83 1032.68 357.426 1033.05 358.156C1033.5 359.023 1033.5 360.162 1033.5 362.44V411H988.505V362.44Z" fill="url(#paint21_linear)"/>
<path d="M1057.5 376.44C1057.5 374.162 1057.5 373.023 1057.96 372.156C1058.33 371.426 1058.93 370.83 1059.66 370.45C1060.53 370 1061.67 370 1063.94 370H1095.06C1097.34 370 1098.48 370 1099.35 370.45C1100.08 370.83 1100.68 371.426 1101.05 372.156C1101.5 373.023 1101.5 374.162 1101.5 376.44V411H1057.5V376.44Z" fill="url(#paint22_linear)"/>
</g>
<defs>
<filter id="filter0_d" x="-13" y="0" width="1190" height="470" filterUnits="userSpaceOnUse" color-interpolation-filters="sRGB">
<feFlood flood-opacity="0" result="BackgroundImageFix"/>
<feColorMatrix in="SourceAlpha" type="matrix" values="0 0 0 0 0 0 0 0 0 0 0 0 0 0 0 0 0 0 127 0"/>
<feOffset dx="2" dy="4"/>
<feGaussianBlur stdDeviation="7.5"/>
<feColorMatrix type="matrix" values="0 0 0 0 0 0 0 0 0 0 0 0 0 0 0 0 0 0 0.05 0"/>
<feBlend mode="normal" in2="BackgroundImageFix" result="effect1_dropShadow"/>
<feBlend mode="normal" in="SourceGraphic" in2="effect1_dropShadow" result="shape"/>
</filter>
<linearGradient id="paint0_linear" x1="20.5779" y1="364.928" x2="65.4894" y2="374.219" gradientUnits="userSpaceOnUse">
<stop stop-color="#330099"/>
<stop offset="1" stop-color="#000099"/>
</linearGradient>
<linearGradient id="paint1_linear" x1="20.5779" y1="409.928" x2="65.4894" y2="419.219" gradientUnits="userSpaceOnUse">
<stop stop-color="#330099"/>
<stop offset="1" stop-color="#000099"/>
</linearGradient>
<linearGradient id="paint2_linear" x1="20.5779" y1="319.675" x2="65.4894" y2="328.966" gradientUnits="userSpaceOnUse">
<stop stop-color="#330099"/>
<stop offset="1" stop-color="#000099"/>
</linearGradient>
<linearGradient id="paint3_linear" x1="20.5779" y1="274.422" x2="65.4894" y2="283.713" gradientUnits="userSpaceOnUse">
<stop stop-color="#330099"/>
<stop offset="1" stop-color="#000099"/>
</linearGradient>
<linearGradient id="paint4_linear" x1="20.5779" y1="229.169" x2="65.4894" y2="238.46" gradientUnits="userSpaceOnUse">
<stop stop-color="#330099"/>
<stop offset="1" stop-color="#000099"/>
</linearGradient>
<linearGradient id="paint5_linear" x1="20.5779" y1="183.916" x2="65.4894" y2="193.207" gradientUnits="userSpaceOnUse">
<stop stop-color="#330099"/>
<stop offset="1" stop-color="#000099"/>
</linearGradient>
<linearGradient id="paint6_linear" x1="20.5779" y1="138.663" x2="65.4894" y2="147.954" gradientUnits="userSpaceOnUse">
<stop stop-color="#330099"/>
<stop offset="1" stop-color="#000099"/>
</linearGradient>
<linearGradient id="paint7_linear" x1="20.5779" y1="99.4097" x2="65.4894" y2="108.701" gradientUnits="userSpaceOnUse">
<stop stop-color="#330099"/>
<stop offset="1" stop-color="#000099"/>
</linearGradient>
<linearGradient id="paint8_linear" x1="119.49" y1="110.829" x2="269.708" y2="263.429" gradientUnits="userSpaceOnUse">
<stop stop-color="#330099"/>
<stop offset="1" stop-color="#000099"/>
</linearGradient>
<linearGradient id="paint9_linear" x1="187.488" y1="137.626" x2="322.252" y2="298.053" gradientUnits="userSpaceOnUse">
<stop offset="0.239583" stop-color="#330099"/>
<stop offset="1" stop-color="#000099"/>
</linearGradient>
<linearGradient id="paint10_linear" x1="255.987" y1="177.427" x2="365.794" y2="334.417" gradientUnits="userSpaceOnUse">
<stop offset="0.239583" stop-color="#330099"/>
<stop offset="1" stop-color="#000099"/>
</linearGradient>
<linearGradient id="paint11_linear" x1="324.987" y1="212.124" x2="412.361" y2="359.325" gradientUnits="userSpaceOnUse">
<stop offset="0.239583" stop-color="#330099"/>
<stop offset="1" stop-color="#000099"/>
</linearGradient>
<linearGradient id="paint12_linear" x1="393.987" y1="212.124" x2="481.361" y2="359.325" gradientUnits="userSpaceOnUse">
<stop offset="0.239583" stop-color="#330099"/>
<stop offset="1" stop-color="#000099"/>
</linearGradient>
<linearGradient id="paint13_linear" x1="463.487" y1="209.954" x2="547.87" y2="365.355" gradientUnits="userSpaceOnUse">
<stop offset="0.239583" stop-color="#330099"/>
<stop offset="1" stop-color="#000099"/>
</linearGradient>
<linearGradient id="paint14_linear" x1="532.987" y1="209.954" x2="618.372" y2="363.781" gradientUnits="userSpaceOnUse">
<stop offset="0.239583" stop-color="#330099"/>
<stop offset="1" stop-color="#000099"/>
</linearGradient>
<linearGradient id="paint15_linear" x1="601.488" y1="223.133" x2="675.061" y2="375.66" gradientUnits="userSpaceOnUse">
<stop offset="0.239583" stop-color="#330099"/>
<stop offset="1" stop-color="#000099"/>
</linearGradient>
<linearGradient id="paint16_linear" x1="669.488" y1="223.133" x2="743.061" y2="375.66" gradientUnits="userSpaceOnUse">
<stop offset="0.239583" stop-color="#330099"/>
<stop offset="1" stop-color="#000099"/>
</linearGradient>
<linearGradient id="paint17_linear" x1="737.488" y1="250.017" x2="791.049" y2="390.73" gradientUnits="userSpaceOnUse">
<stop offset="0.239583" stop-color="#330099"/>
<stop offset="1" stop-color="#000099"/>
</linearGradient>
<linearGradient id="paint18_linear" x1="805.987" y1="263.428" x2="847.887" y2="398.058" gradientUnits="userSpaceOnUse">
<stop offset="0.239583" stop-color="#330099"/>
<stop offset="1" stop-color="#000099"/>
</linearGradient>
<linearGradient id="paint19_linear" x1="874.488" y1="279.084" x2="909.333" y2="401.141" gradientUnits="userSpaceOnUse">
<stop offset="0.239583" stop-color="#330099"/>
<stop offset="1" stop-color="#000099"/>
</linearGradient>
<linearGradient id="paint20_linear" x1="942.488" y1="279.084" x2="977.333" y2="401.141" gradientUnits="userSpaceOnUse">
<stop offset="0.239583" stop-color="#330099"/>
<stop offset="1" stop-color="#000099"/>
</linearGradient>
<linearGradient id="paint21_linear" x1="1010.99" y1="312.316" x2="1027.89" y2="408.074" gradientUnits="userSpaceOnUse">
<stop offset="0.239583" stop-color="#330099"/>
<stop offset="1" stop-color="#000099"/>
</linearGradient>
<linearGradient id="paint22_linear" x1="1079.49" y1="332.589" x2="1089.86" y2="409.647" gradientUnits="userSpaceOnUse">
<stop offset="0.239583" stop-color="#330099"/>
<stop offset="1" stop-color="#000099"/>
</linearGradient>
<clipPath id="clip0">
<path d="M97.5049 111H1101.5V411H97.5049V111Z" fill="white"/>
</clipPath>
</defs>
</svg>
