<svg width="101" height="45" viewBox="0 0 101 45" fill="none" xmlns="http://www.w3.org/2000/svg">
<g clip-path="url(#clip0)">
<path d="M19.5403 19.5505H25.0987V13.7199C25.0987 12.0937 24.2796 11.2805 22.6414 11.2802H22.0265C20.3881 11.2802 19.569 12.0934 19.5693 13.7199L19.5403 19.5505ZM19.5403 23.271V29.6851C19.5403 31.3113 20.3595 32.1244 21.9979 32.1244H22.7131C24.3512 32.1244 25.1703 31.3113 25.1703 29.6851V26.5316H28.9587V29.5304C28.9587 33.6477 26.8606 35.734 22.7094 35.734H21.9024C17.7548 35.734 15.6528 33.6513 15.6528 30.0144V14.3544C15.6528 9.75299 17.7509 7.67062 21.9024 7.67062H22.7214C26.869 7.67062 28.9706 9.75694 28.9706 13.8743V23.271H19.5403Z" fill="#CCCCCC"/>
<path d="M35.3844 30.6489C36.3699 31.5403 37.6478 32.0464 38.9807 32.0731C40.415 32.0731 41.2343 31.4106 41.2343 29.8359V13.5727C41.2343 11.9858 40.415 11.3355 38.9807 11.3355C37.6477 11.3616 36.3696 11.8676 35.3844 12.7593V30.6489ZM31.4922 7.97621H35.3844V9.75694C35.991 9.10265 36.7271 8.57966 37.5466 8.22067C38.3662 7.86168 39.2515 7.67443 40.1473 7.67062C43.4752 7.67062 45.1138 9.85641 45.1138 13.1087V30.292C45.1138 33.5447 43.4755 35.7301 40.1473 35.7301C39.2605 35.7303 38.3825 35.555 37.5647 35.2145C36.7469 34.874 36.0057 34.375 35.3844 33.7468V42.6042H31.4922V7.97621Z" fill="#CCCCCC"/>
<path d="M56.7985 30.7998V21.7481L53.2663 23.0768C51.832 23.6362 51.3722 24.3461 51.3722 25.9247V30.1017C51.3722 31.4224 52.0396 32.0849 53.2663 32.0849C54.4929 32.0849 55.5159 31.6645 56.7985 30.7998ZM47.4764 25.8694C47.4764 22.462 48.6036 21.1093 51.5719 20.074L56.7946 18.2929V13.7199C56.7946 12.0936 55.9756 11.2285 54.3373 11.2285H53.7018C52.0635 11.2285 51.2446 12.0936 51.2446 13.7199V17.6071H47.4746V13.8703C47.4746 9.75299 49.5726 7.66667 53.7238 7.66667H54.4592C58.6068 7.66667 60.7085 9.75299 60.7085 13.8703V35.4249H56.8166V33.6951C56.203 34.3369 55.4644 34.8481 54.6456 35.1976C53.8269 35.5472 52.945 35.7279 52.0537 35.7287C48.9291 35.7287 47.496 33.9476 47.496 30.8974L47.4764 25.8694Z" fill="#CCCCCC"/>
<path d="M76.4279 35.4288H72.5364V13.3152C72.5364 11.9427 71.869 11.3319 70.6941 11.3319C69.6194 11.3319 68.4927 11.7269 67.0982 12.7044V35.4288H63.2183V7.97621H67.1101V9.75694C68.2369 8.69008 69.7233 7.67062 71.873 7.67062C73.8709 7.67062 75.201 8.48396 75.9165 9.90776C77.299 8.73748 78.9373 7.67062 81.1909 7.67062C84.2117 7.67062 85.7487 9.49912 85.7487 12.5018V35.4288H81.8383V13.3152C81.8383 11.9427 81.171 11.3319 79.9961 11.3319C78.9214 11.3319 77.7946 11.7269 76.4001 12.7044L76.4279 35.4288Z" fill="#CCCCCC"/>
<path d="M10.6747 10.5028V15.552L4.12595 21.7481L10.6747 27.8326V32.9891L0.685547 23.6599V19.9469L10.6747 10.5028Z" fill="#CCCCCC"/>
<path d="M100.686 19.9469V23.6599L90.6968 32.9891V27.8326L97.2455 21.7481L90.6968 15.552V10.5028L100.686 19.9469Z" fill="#CCCCCC"/>
</g>
<defs>
<clipPath id="clip0">
<rect x="0.685547" y="0.5" width="100" height="44" fill="white"/>
</clipPath>
</defs>
</svg>
