<svg width="105" height="45" viewBox="0 0 105 45" fill="none" xmlns="http://www.w3.org/2000/svg">
<path d="M104.225 7.73756H100.907V30.2611H104.225V7.73756Z" fill="#CCCCCC"/>
<path fill-rule="evenodd" clip-rule="evenodd" d="M97.3469 30.2612H94.0295V14.3001H97.3469V30.2612ZM95.6887 7.17867C96.9247 7.17867 97.9277 8.18164 97.9277 9.41758C97.9277 10.6535 96.9247 11.6576 95.6887 11.6576C94.4528 11.6576 93.4487 10.6535 93.4487 9.41758C93.4487 8.18164 94.4528 7.17867 95.6887 7.17867V7.17867Z" fill="#CCCCCC"/>
<path fill-rule="evenodd" clip-rule="evenodd" d="M90.4255 30.2611H87.164V28.5155C85.9959 29.8389 83.9374 30.6701 82.0015 30.6701C77.3706 30.6701 73.6113 26.9109 73.6113 22.28C73.6113 17.6501 77.3706 13.8898 82.0015 13.8898C83.9374 13.8898 85.8876 14.6194 87.164 15.9089V14.3H90.4255V30.2611ZM82.1076 17.2433C84.9623 17.2433 87.2088 19.2864 87.2088 22.28C87.2088 25.2747 84.9623 27.3353 82.1076 27.3353C79.2518 27.3353 77.0818 25.1358 77.0818 22.28C77.0818 19.4253 79.2518 17.2433 82.1076 17.2433Z" fill="#CCCCCC"/>
<path fill-rule="evenodd" clip-rule="evenodd" d="M49.2717 30.2611H46.0112V14.3H49.2717V15.4145C49.9958 14.7342 51.3531 13.8931 53.2365 13.8898C55.5498 13.8898 57.2747 14.8633 58.457 16.4295C59.7498 14.8797 61.8805 13.8898 64.0526 13.8898C68.1269 13.8898 70.9039 16.6417 70.9039 20.9292V30.2611H67.6434V20.9292C67.6434 18.8456 65.9481 17.1514 63.8656 17.1514C61.782 17.1514 60.0878 18.8456 60.0878 20.9292V30.2611H56.8273V20.9292C56.8273 18.8456 55.132 17.1514 53.0495 17.1514C50.9659 17.1514 49.2717 18.8456 49.2717 20.9292V30.2611Z" fill="#CCCCCC"/>
<path d="M24.0777 22C24.0777 24.9028 21.7163 27.2642 18.8135 27.2642C15.9107 27.2642 13.5493 24.9028 13.5493 22C13.5493 19.0972 15.9107 16.7358 18.8135 16.7358C21.7163 16.7358 24.0777 19.0972 24.0777 22ZM18.8135 4.5C9.16442 4.5 1.31348 12.3509 1.31348 22C1.31348 31.6491 9.16442 39.5 18.8135 39.5C22.3485 39.5 25.7577 38.4478 28.6714 36.4561L28.7218 36.4211L26.3636 33.6802L26.3243 33.7064C24.081 35.1491 21.4833 35.9125 18.8135 35.9125C11.1419 35.9125 4.90098 29.6716 4.90098 22C4.90098 14.3284 11.1419 8.0875 18.8135 8.0875C26.485 8.0875 32.726 14.3284 32.726 22C32.726 22.9942 32.6155 24.0005 32.3979 24.9903C31.9582 26.7961 30.6938 27.3495 29.7444 27.2762C28.7896 27.1986 27.6729 26.5183 27.6652 24.8536V23.5848V22C27.6652 17.1186 23.6949 13.1483 18.8135 13.1483C13.9321 13.1483 9.96176 17.1186 9.96176 22C9.96176 26.8814 13.9321 30.8517 18.8135 30.8517C21.1847 30.8517 23.4083 29.9242 25.085 28.2388C26.0596 29.7558 27.6488 30.7073 29.4568 30.8517C29.6121 30.8648 29.7707 30.8714 29.9282 30.8714C31.2002 30.8714 32.4624 30.4459 33.4796 29.6727C34.5285 28.8764 35.3116 27.7247 35.7447 26.3411C35.8136 26.118 35.9405 25.6061 35.9416 25.6028L35.9449 25.5842C36.1997 24.4741 36.3135 23.3672 36.3135 22C36.3135 12.3509 28.4625 4.5 18.8135 4.5" fill="#CCCCCC"/>
</svg>
