<svg width="16" height="16" viewBox="0 0 16 16" fill="none" xmlns="http://www.w3.org/2000/svg">
<circle cx="8" cy="8" r="8" fill="#330099"/>
<path d="M11.0301 8.74094C10.9891 8.63302 10.9201 8.51827 10.823 8.39609C10.7261 8.2741 10.6441 8.17804 10.5774 8.1077C10.511 8.03736 10.401 7.94833 10.2475 7.84042C10.094 7.7325 9.97895 7.65512 9.90222 7.6083L9.48789 7.35508C9.2884 7.2333 9.14766 7.14869 9.06567 7.10187C8.95321 7.0267 8.80742 6.93526 8.62832 6.82755C8.44943 6.71963 8.32382 6.64467 8.25235 6.60246C8.18066 6.56026 8.09363 6.50158 7.99126 6.42662C7.88888 6.35146 7.82004 6.28836 7.78409 6.23671C7.74836 6.18506 7.71525 6.12417 7.68434 6.05383C7.65365 5.98349 7.63831 5.91074 7.63831 5.83578C7.63831 5.65752 7.7203 5.51685 7.88384 5.41355C8.0476 5.31046 8.2267 5.25881 8.42115 5.25881C8.62591 5.25881 8.91221 5.32673 9.28073 5.46279C9.64902 5.59884 9.84851 5.66677 9.87921 5.66677C9.91998 5.66677 9.94541 5.6527 9.95593 5.62456C10.0377 5.54016 10.2015 5.30101 10.447 4.90712C10.6925 4.51322 10.8155 4.28794 10.8155 4.23167C10.8155 4.21298 10.7925 4.18947 10.7465 4.16133C10.7004 4.1332 10.6414 4.10024 10.57 4.06266L10.3551 3.94992C10.2835 3.91233 10.2144 3.87897 10.148 3.85084C10.0815 3.8227 10.043 3.80261 10.0331 3.79336C9.56243 3.65269 9.16322 3.56587 8.83592 3.53773C8.81532 3.4063 8.80523 3.20916 8.80523 2.95594C8.80523 2.90911 8.78462 2.81386 8.74385 2.71076L8.63643 2.66675H7.50063C7.37787 2.66675 7.31649 2.75758 7.31649 2.87957C7.31649 2.96398 7.32153 3.11088 7.33183 3.27025C7.34192 3.42961 7.34696 3.54939 7.34696 3.62455C5.93516 3.89666 5.22904 4.64345 5.22904 5.86271C5.22904 6.12537 5.28012 6.37698 5.3825 6.61613C5.48488 6.85528 5.5923 7.05263 5.70498 7.20737C5.81744 7.36212 6.00926 7.53816 6.28044 7.73511C6.5514 7.93205 6.75615 8.07052 6.89426 8.1503C7.03259 8.22989 7.28075 8.36373 7.63874 8.55143C7.99696 8.73913 8.2221 8.86092 8.31439 8.91719C8.68269 9.17041 8.86683 9.46563 8.86683 9.80345C8.86683 10.1692 8.60092 10.3521 8.06886 10.3521C7.46512 10.3521 6.93833 10.2393 6.48804 10.0143C6.45713 10.005 6.35497 9.94634 6.18113 9.83842C6.00729 9.7307 5.86391 9.67182 5.75145 9.66237C5.2194 10.3941 4.90218 10.9096 4.7998 11.2098C4.7998 11.2566 4.96861 11.378 5.30643 11.5752C5.93056 11.8941 6.58538 12.0993 7.27089 12.1931C7.27089 12.2964 7.26585 12.4536 7.25554 12.6694C7.24524 12.8853 7.2402 13.0404 7.2402 13.1435C7.2402 13.2187 7.23011 13.2711 7.20951 13.3181L7.27089 13.3334C7.30158 13.3334 7.33731 13.3181 7.37831 13.3181H8.52923C8.65221 13.3181 8.71338 13.3007 8.71338 13.1789C8.71338 13.0571 8.71075 12.9194 8.70592 12.6899C8.70088 12.46 8.69825 12.2916 8.69825 12.1789C9.41445 12.0476 10.0103 11.7512 10.486 11.2868C10.9619 10.8223 11.1998 10.2629 11.1998 9.6061C11.1998 9.43729 11.1818 9.27833 11.1461 9.1282C11.1104 8.97808 11.0711 8.84866 11.0301 8.74094Z" fill="white"/>
</svg>
