<svg width="166" height="45" viewBox="0 0 166 45" fill="none" xmlns="http://www.w3.org/2000/svg">
<g clip-path="url(#clip0)">
<path d="M160.472 10.305H164.383C163.365 10.9442 162.42 11.6937 161.565 12.5398L157.654 16.5626L159.799 19.6377C161.556 22.2357 163.525 24.6831 165.685 26.9547H160.093C159.334 25.2172 158.419 23.5521 157.36 21.9799L154.836 18.1851L157.025 15.4049C158.987 12.8482 160.136 11.1482 160.472 10.305ZM154.537 12.1599V25.0551L154.706 26.025C154.905 26.2471 155.172 26.3965 155.464 26.4496V26.9547H150.042V26.4496L150.8 26.025C150.94 25.7221 150.998 25.3877 150.969 25.0551V12.1599L150.8 11.2347C150.71 11.1178 150.596 11.0229 150.464 10.9571C150.333 10.8913 150.188 10.8563 150.042 10.8547V10.305H155.469V10.8547C155.322 10.8563 155.177 10.8913 155.046 10.9571C154.915 11.0229 154.8 11.1178 154.711 11.2347L154.537 12.1599ZM146.465 12.1599V25.0551L146.635 26.025L147.388 26.4496V26.9547H141.93V26.4496C142.239 26.3767 142.526 26.2312 142.768 26.025L142.893 25.0551V18.3505H136.503V25.0551L136.672 26.025C136.87 26.2462 137.135 26.3956 137.426 26.4496V26.9547H131.918V26.4496C132.238 26.4049 132.535 26.2557 132.761 26.025L132.926 25.0551V12.1599L132.761 11.2347C132.658 11.1125 132.528 11.015 132.383 10.9493C132.237 10.8835 132.078 10.8512 131.918 10.8547V10.305H137.426V10.8547C137.28 10.8563 137.136 10.8913 137.005 10.9572C136.874 11.023 136.761 11.1179 136.672 11.2347L136.503 12.1599V17.2599H142.893V12.1599L142.768 11.2347C142.544 11.0103 142.246 10.8753 141.93 10.8547V10.305H147.402V10.8547C147.255 10.8563 147.111 10.8913 146.981 10.9572C146.85 11.023 146.736 11.1179 146.648 11.2347L146.465 12.1599ZM165.685 32.7698H43.9957V31.1249H165.685V32.7698ZM120.021 10.8681V10.3184H124.814C124.887 11.1583 125.086 11.9826 125.403 12.7633L128.935 22.7085C129.408 24.1672 129.983 25.5906 130.656 26.9681H126.442L124.658 20.9831H119.307L118.174 24.9433L117.835 26.9681H114.812L120.199 14.4931C120.734 13.1522 120.997 12.2582 120.997 11.8113C120.997 11.3643 120.645 10.9397 120.021 10.8547V10.8681ZM121.996 13.103L119.726 19.8076H124.266L121.996 13.103ZM113.523 13.9478H112.6L112.39 13.2326C112.277 12.5851 111.913 12.0085 111.378 11.628L109.068 11.333H106.838C106.483 11.2905 106.124 11.3813 105.831 11.5878C105.668 11.8056 105.593 12.0769 105.621 12.3476V16.281H106.544C109.238 16.281 111.102 16.5477 112.136 17.0811C113.623 17.8141 114.366 19.2474 114.366 21.3809C114.366 23.4668 113.771 24.9567 112.582 25.8507C111.542 26.5777 109.929 26.9428 107.744 26.9458H101.099V26.4407L101.897 26.0161L102.022 25.0461V12.1599L101.897 11.2347C101.801 11.1152 101.68 11.019 101.542 10.9532C101.403 10.8875 101.252 10.8538 101.099 10.8547V10.305H113.51L113.523 13.9478ZM105.621 17.3627V24.4829C105.595 24.6766 105.607 24.8736 105.658 25.0624C105.708 25.2512 105.796 25.428 105.915 25.5825C106.25 25.8418 106.672 25.9618 107.093 25.9177H107.596C108.049 25.9505 108.503 25.8671 108.915 25.6755C109.327 25.4839 109.684 25.1904 109.951 24.8226C110.4 24.1492 110.624 23.0675 110.624 21.5776C110.624 20.116 110.384 19.0746 109.911 18.4488C109.403 17.7158 108.466 17.3537 107.093 17.3537L105.621 17.3627ZM99.6497 15.0876C99.6497 17.023 99.0611 18.4175 97.866 19.2578C96.8522 19.9909 95.2824 20.3559 93.1568 20.3529H91.4711V25.0729L91.6405 26.0429C91.7253 26.2127 91.9928 26.3513 92.4388 26.4675V26.9726H86.967V26.4675L87.7251 26.0429L87.8946 25.0729V12.1599L87.7251 11.2347C87.6358 11.1178 87.5211 11.0229 87.3898 10.9571C87.2584 10.8913 87.1139 10.8563 86.967 10.8547V10.305H93.8881C95.767 10.305 97.1405 10.5866 98.0087 11.1497C99.0878 11.8887 99.6274 13.1954 99.6274 15.0697L99.6497 15.0876ZM91.7431 11.5118C91.5737 11.6235 91.4934 11.8783 91.4934 12.2716V19.3115H93.1746C93.6138 19.3487 94.0543 19.2569 94.4423 19.0473C94.8304 18.8378 95.1491 18.5195 95.3597 18.1315C95.7254 17.4252 95.9082 16.3436 95.9082 14.9267C95.9082 12.5428 94.9123 11.3509 92.9204 11.3509H92.5012L91.7431 11.5118ZM84.4697 13.9567H83.5778L83.3683 13.2416C83.209 12.6026 82.8379 12.0368 82.3158 11.6369L80.046 11.3419H78.1953L77.5219 11.5118L77.3524 12.1465V17.2867H79.542C81.0523 17.2867 82.0468 17.1183 82.5254 16.7816V18.8868C82.0468 18.5531 81.0523 18.3847 79.542 18.3818H77.3524V24.6394C77.3332 24.8383 77.3678 25.0387 77.4526 25.2196C77.5373 25.4005 77.6691 25.5552 77.8341 25.6674L79.9389 25.9222H80.3849L82.6547 25.587C83.0472 25.3307 83.3549 24.7124 83.5778 23.732L83.7473 23.0973H84.7997V26.977H72.8395V26.472C73.1467 26.4237 73.4291 26.2743 73.6422 26.0473L73.8072 25.0774V12.1599L73.6422 11.2347C73.5457 11.1146 73.4234 11.0181 73.2844 10.9523C73.1453 10.8865 72.9932 10.8531 72.8395 10.8547V10.305H84.4341L84.4697 13.9567ZM70.1326 13.9567H69.2407L69.0266 13.2416C68.891 12.5936 68.5168 12.0207 67.9787 11.6369L65.7489 11.3419H63.4345C63.0793 11.3079 62.7232 11.3979 62.4266 11.5967C62.3241 11.8361 62.2812 12.0969 62.3018 12.3566V16.281H63.2249C65.9006 16.281 67.7646 16.5477 68.817 17.0811C70.2768 17.8141 71.0066 19.2474 71.0066 21.3809C71.0066 23.4668 70.412 24.9567 69.2228 25.8507C68.212 26.5777 66.5992 26.9428 64.3843 26.9458H57.6951V26.4407C58.0151 26.396 58.3113 26.2467 58.538 26.0161L58.703 25.0461V12.1599L58.538 11.2347C58.4345 11.1125 58.3052 11.015 58.1594 10.9493C58.0136 10.8835 57.855 10.8512 57.6951 10.8547V10.305H70.1014L70.1326 13.9567ZM53.3962 11.6816C52.6857 11.2618 51.8641 11.0699 51.0416 11.1319C49.3589 11.1319 48.1697 11.7502 47.4741 12.9868C46.8795 14.0566 46.5822 15.7983 46.5822 18.2119C46.5822 20.6256 46.9047 22.4135 47.5499 23.5756C48.3347 25.0089 49.68 25.7255 51.5857 25.7255C53.033 25.7137 54.4582 25.3681 55.7508 24.7154L56.2547 25.7657C54.5513 26.7781 52.5978 27.2893 50.618 27.2408C45.3528 27.2408 42.7188 24.4457 42.7158 18.8555C42.7158 12.9823 45.448 10.0457 50.9123 10.0457C53.0172 10.0457 54.63 10.299 55.7508 10.8056V14.2607H54.6984L54.4041 13.2505C54.24 12.6218 53.8789 12.0624 53.3739 11.6548L53.3962 11.6816ZM62.3151 17.3716V24.4919C62.2684 24.8763 62.3567 25.2651 62.5649 25.5914C62.9154 25.8536 63.3519 25.9733 63.7868 25.9267H64.2327C66.2514 25.9267 67.2607 24.48 67.2607 21.5865C67.2607 20.1235 67.0228 19.0805 66.5472 18.4577C66.0165 17.7247 65.0622 17.3627 63.6887 17.3627L62.3151 17.3716Z" fill="#CCCCCC"/>
<path d="M28.2273 7.64994L29.6989 8.99086L11.1119 19.7048L2.11714 14.4931L2.95552 12.8035L11.1119 17.4833L28.2273 7.64994ZM24.4858 5.5L26.4613 6.51463L11.1119 15.387L3.97673 11.2972L5.19863 9.82223L11.1253 13.2371L24.4858 5.5ZM31.01 10.3899L32.107 11.8649L11.1119 23.96L0.97998 18.1493L1.42593 16.2944L11.094 21.8592L31.01 10.3899Z" fill="#CCCCCC"/>
<path d="M34.0289 15.834C34.6507 17.5935 34.9645 19.4473 34.9565 21.3139C34.9604 23.2078 34.6469 25.0889 34.0289 26.8787L33.6097 28.0185C32.7466 30.0586 31.5058 31.9165 29.953 33.4939C26.6933 36.6648 22.3432 38.46 17.801 38.5089C15.4991 38.5159 13.2211 38.0425 11.1118 37.1188C9.09545 36.2583 7.25657 35.029 5.68907 33.4939C4.11339 31.93 2.86688 30.0651 2.02339 28.0096C1.13786 25.8858 0.68307 23.6067 0.685557 21.305V20.1696L11.1118 26.1144L33.1058 13.4651L34.0289 15.834Z" fill="#CCCCCC"/>
</g>
<defs>
<clipPath id="clip0">
<rect x="0.685547" y="0.5" width="165" height="44" fill="white"/>
</clipPath>
</defs>
</svg>
