<svg width="24" height="27" viewBox="0 0 24 27" fill="none" xmlns="http://www.w3.org/2000/svg">
<path d="M11.9673 5.66602C7.91464 5.66602 4.62354 9.01696 4.62354 13.1433C4.62354 17.2697 7.91464 20.6207 11.9673 20.6207C16.02 20.6207 19.3111 17.2697 19.3111 13.1433C19.3111 9.01696 16.02 5.66602 11.9673 5.66602ZM15.1496 13.8634H11.9673C11.5865 13.8634 11.2601 13.5587 11.2601 13.1433V9.34929C11.2601 8.96157 11.5593 8.62925 11.9673 8.62925C12.3481 8.62925 12.6745 8.93388 12.6745 9.34929V12.451H15.1496C15.5304 12.451 15.8568 12.7556 15.8568 13.171C15.8568 13.5864 15.5304 13.8634 15.1496 13.8634Z" fill="#330099"/>
<path d="M4.62325 5.66615C7.34318 2.89677 11.3415 1.8721 15.0406 3.03524L15.231 3.09063L14.8774 4.14299C14.7958 4.41993 14.8502 4.69686 15.0406 4.89072C15.231 5.08458 15.503 5.16766 15.7749 5.11227L19.2292 4.28146C19.474 4.22607 19.6916 4.03221 19.7732 3.78297C19.8548 3.53373 19.8004 3.25679 19.6372 3.06293L17.3525 0.26586C17.1621 0.0443101 16.9173 -0.0387713 16.6453 0.0166163C16.3733 0.0720038 16.1557 0.26586 16.0741 0.515104L15.7477 1.53977L15.5845 1.48439C14.3878 1.09667 13.191 0.930511 11.9942 0.930511C8.86634 0.930511 5.79282 2.17673 3.50808 4.50301C-0.191013 8.26936 -1.06139 14.1681 1.35934 18.8761C1.46814 19.0699 1.65854 19.2361 1.87613 19.2915C2.09372 19.3469 2.31132 19.3192 2.47451 19.2361C2.8553 19.0145 2.9913 18.5161 2.8009 18.1283C0.679364 14.0297 1.44094 8.93401 4.62325 5.66615Z" fill="#330099"/>
<path d="M22.6023 7.41102C22.4935 7.21716 22.3031 7.051 22.0855 6.99561C21.8679 6.94023 21.6503 6.96792 21.4871 7.051C21.1063 7.27255 20.9703 7.77104 21.1607 8.15875C23.2822 12.2297 22.5207 17.3531 19.3383 20.5933C16.6184 23.3626 12.6201 24.3873 8.92104 23.2242L8.73064 23.1965L9.08423 22.1441C9.16583 21.8672 9.11143 21.5902 8.92104 21.3964C8.78504 21.2302 8.56745 21.1471 8.37705 21.1471C8.32265 21.1471 8.26825 21.1471 8.18666 21.1748L4.73235 22.0056C4.48756 22.061 4.26997 22.2549 4.18837 22.5041C4.10677 22.7534 4.16117 23.0303 4.32436 23.2242L6.6091 26.0212C6.79949 26.2428 7.07149 26.3259 7.31628 26.2982C7.58827 26.2428 7.80587 26.0489 7.88746 25.7997L8.21385 24.775L8.37705 24.8304C12.6473 26.1874 17.2984 25.0243 20.4535 21.8118C24.207 17.9623 25.0774 12.202 22.6023 7.41102Z" fill="#330099"/>
</svg>
