<svg width="331" height="514" viewBox="0 0 331 514" fill="none" xmlns="http://www.w3.org/2000/svg">
<g filter="url(#filter0_d)">
<rect y="11" width="314" height="484" fill="white"/>
<rect x="0.5" y="11.5" width="313" height="483" stroke="#EAEAEA"/>
</g>
<path d="M159.03 90.3341H154.701V87.6564H166.512V90.3341H162.183V97.7133H159.03V90.3341Z" fill="#CCCCCC"/>
<path d="M178.616 87.6564V97.7133H175.569V91.8521L170.315 97.7133H167.625V87.6986H170.672V93.4966L175.926 87.6564H178.616Z" fill="#CCCCCC"/>
<path d="M183.866 97.7133H180.818V87.6984H183.866V91.3881H188.762V87.6984H191.809V97.7133H188.762V93.9604H183.866V97.7133Z" fill="#CCCCCC"/>
<path d="M194.01 97.7133V87.6984H197.057V90.3339H200.209C200.962 90.2949 201.716 90.3876 202.437 90.608C203.129 90.8425 203.727 91.2962 204.14 91.9007C204.553 92.5053 204.759 93.2281 204.728 93.9604C204.754 94.7546 204.507 95.5338 204.029 96.1672C203.551 96.8007 202.87 97.2498 202.101 97.4393C201.477 97.6058 200.833 97.6838 200.188 97.6712L194.01 97.7133ZM197.057 95.2887H199.684C200.089 95.3253 200.497 95.275 200.882 95.1411C201.114 95.045 201.313 94.8811 201.451 94.6706C201.59 94.4601 201.663 94.2127 201.659 93.9604C201.664 93.7152 201.588 93.4753 201.444 93.2773C201.3 93.0794 201.095 92.9342 200.861 92.864C200.478 92.7561 200.08 92.7133 199.684 92.7375H197.057V95.2887Z" fill="#CCCCCC"/>
<path d="M209.152 97.7133H206.104V87.6984H209.152V91.4725H209.992L213.67 87.6984H217.495L212.619 92.4423L217.684 97.7133H213.628L209.992 93.9182H209.152V97.7133Z" fill="#CCCCCC"/>
<path d="M230.566 92.6953C230.566 95.6892 228.107 98.0084 224.03 98.0084C219.953 98.0084 217.474 95.6892 217.474 92.6953C217.474 89.7014 219.932 87.3822 224.051 87.3822C228.17 87.3822 230.566 89.7014 230.566 92.6953ZM227.372 92.6953C227.372 91.0508 226.048 89.849 224.03 89.849C222.013 89.849 220.689 91.0508 220.689 92.6953C220.689 94.3398 221.992 95.5627 224.03 95.5627C226.069 95.5627 227.372 94.3398 227.372 92.6953Z" fill="#CCCCCC"/>
<path d="M246.744 92.6743C246.744 95.5417 244.453 97.0387 240.607 97.123V98.1351H237.56V97.123C233.735 97.0387 231.444 95.5417 231.444 92.6743C231.444 89.8069 233.735 88.1834 237.56 88.0991V87.087H240.607V88.0991C244.458 88.1834 246.744 89.8069 246.744 92.6743ZM237.56 90.2707C235.458 90.3551 234.534 91.3249 234.534 92.6743C234.534 94.0237 235.458 94.8881 237.56 94.9725V90.2707ZM243.633 92.6743C243.633 91.3249 242.73 90.3551 240.607 90.2707V94.9725C242.735 94.8881 243.639 94.0237 243.639 92.6743H243.633Z" fill="#CCCCCC"/>
<path d="M262.93 92.6743C262.93 95.5417 260.639 97.0387 256.794 97.123V98.1351H253.746V97.123C249.922 97.0387 247.631 95.5417 247.631 92.6743C247.631 89.8069 249.922 88.1834 253.746 88.0991V87.087H256.794V88.0991C260.639 88.1834 262.93 89.8069 262.93 92.6743ZM253.746 90.2707C251.645 90.3551 250.72 91.3249 250.72 92.6743C250.72 94.0237 251.645 94.8881 253.746 94.9725V90.2707ZM259.82 92.6743C259.82 91.3249 258.916 90.3551 256.794 90.2707V94.9725C258.916 94.8881 259.815 94.0237 259.815 92.6743H259.82Z" fill="#CCCCCC"/>
<path d="M217.271 34.9149H215.17V49.3001H217.271V34.9149Z" fill="#CCCCCC"/>
<path fill-rule="evenodd" clip-rule="evenodd" d="M212.915 49.3001H210.814V39.1061H212.915V49.3001ZM211.865 34.5578C212.648 34.5578 213.283 35.1983 213.283 35.9877C213.283 36.7771 212.648 37.4184 211.865 37.4184C211.082 37.4184 210.446 36.7771 210.446 35.9877C210.446 35.1983 211.082 34.5578 211.865 34.5578Z" fill="#CCCCCC"/>
<path fill-rule="evenodd" clip-rule="evenodd" d="M208.531 49.3002H206.465V48.1854C205.725 49.0306 204.421 49.5615 203.195 49.5615C200.262 49.5615 197.881 47.1606 197.881 44.203C197.881 41.246 200.262 38.8444 203.195 38.8444C204.421 38.8444 205.657 39.3104 206.465 40.1339V39.1064H208.531V49.3002ZM203.262 40.9862C205.07 40.9862 206.493 42.291 206.493 44.203C206.493 46.1156 205.07 47.4316 203.262 47.4316C201.453 47.4316 200.079 46.0269 200.079 44.203C200.079 42.3798 201.453 40.9862 203.262 40.9862Z" fill="#CCCCCC"/>
<path fill-rule="evenodd" clip-rule="evenodd" d="M182.465 49.3005H180.399V39.1064H182.465V39.8182C182.923 39.3837 183.783 38.8465 184.976 38.8444C186.441 38.8444 187.534 39.4661 188.282 40.4665C189.101 39.4766 190.451 38.8444 191.827 38.8444C194.407 38.8444 196.166 40.602 196.166 43.3404V49.3005H194.101V43.3404C194.101 42.0096 193.027 40.9275 191.708 40.9275C190.388 40.9275 189.315 42.0096 189.315 43.3404V49.3005H187.25V43.3404C187.25 42.0096 186.176 40.9275 184.857 40.9275C183.538 40.9275 182.465 42.0096 182.465 43.3404V49.3005Z" fill="#CCCCCC"/>
<path d="M166.508 44.0242C166.508 45.8782 165.012 47.3864 163.173 47.3864C161.335 47.3864 159.839 45.8782 159.839 44.0242C159.839 42.1703 161.335 40.6621 163.173 40.6621C165.012 40.6621 166.508 42.1703 166.508 44.0242ZM163.173 32.8474C157.062 32.8474 152.089 37.8616 152.089 44.0242C152.089 50.1869 157.062 55.2011 163.173 55.2011C165.412 55.2011 167.572 54.5291 169.417 53.257L169.449 53.2346L167.955 51.4841L167.93 51.5008C166.51 52.4222 164.864 52.9098 163.173 52.9098C158.314 52.9098 154.361 48.9239 154.361 44.0242C154.361 39.1246 158.314 35.1386 163.173 35.1386C168.032 35.1386 171.985 39.1246 171.985 44.0242C171.985 44.6592 171.915 45.3019 171.777 45.9341C171.499 47.0874 170.698 47.4408 170.097 47.394C169.492 47.3444 168.785 46.9099 168.78 45.8468V45.0364V44.0242C168.78 40.9066 166.265 38.3708 163.173 38.3708C160.081 38.3708 157.567 40.9066 157.567 44.0242C157.567 47.1419 160.081 49.6776 163.173 49.6776C164.675 49.6776 166.084 49.0852 167.146 48.0088C167.763 48.9777 168.769 49.5854 169.915 49.6776C170.013 49.686 170.113 49.6902 170.213 49.6902C171.019 49.6902 171.818 49.4185 172.463 48.9246C173.127 48.416 173.623 47.6805 173.897 46.7968C173.941 46.6543 174.021 46.3274 174.022 46.3253L174.024 46.3134C174.185 45.6044 174.258 44.8974 174.258 44.0242C174.258 37.8616 169.285 32.8474 163.173 32.8474" fill="#CCCCCC"/>
<g clip-path="url(#clip0)">
<path d="M250.478 41.6399H253.459V38.3835C253.459 37.4752 253.02 37.021 252.141 37.0209H251.811C250.932 37.0209 250.493 37.4751 250.493 38.3835L250.478 41.6399ZM250.478 43.7179V47.3003C250.478 48.2085 250.917 48.6627 251.796 48.6627H252.179C253.058 48.6627 253.497 48.2085 253.497 47.3003V45.539H255.529V47.2138C255.529 49.5134 254.404 50.6787 252.177 50.6787H251.745C249.52 50.6787 248.393 49.5154 248.393 47.4842V38.7379C248.393 36.1679 249.518 35.0049 251.745 35.0049H252.184C254.408 35.0049 255.536 36.1701 255.536 38.4697V43.7179H250.478Z" fill="#CCCCCC"/>
<path d="M258.974 47.8386C259.503 48.3364 260.188 48.6191 260.903 48.634C261.673 48.634 262.112 48.2639 262.112 47.3845V38.3012C262.112 37.415 261.673 37.0518 260.903 37.0518C260.188 37.0663 259.503 37.3489 258.974 37.847V47.8386ZM256.887 35.1756H258.974V36.1701C259.3 35.8047 259.695 35.5126 260.134 35.3121C260.574 35.1116 261.049 35.007 261.529 35.0049C263.314 35.0049 264.193 36.2257 264.193 38.0421V47.6392C264.193 49.4559 263.314 50.6765 261.529 50.6765C261.053 50.6766 260.582 50.5787 260.144 50.3885C259.705 50.1983 259.308 49.9196 258.974 49.5688V54.5157H256.887V35.1756Z" fill="#CCCCCC"/>
<path d="M270.461 47.8297V42.7743L268.566 43.5163C267.797 43.8288 267.55 44.2253 267.55 45.107V47.4398C267.55 48.1775 267.908 48.5475 268.566 48.5475C269.224 48.5475 269.773 48.3127 270.461 47.8297ZM265.461 45.0761C265.461 43.173 266.065 42.4175 267.658 41.8393L270.459 40.8445V38.2904C270.459 37.3821 270.02 36.8989 269.141 36.8989H268.8C267.921 36.8989 267.482 37.3821 267.482 38.2904V40.4614H265.46V38.3744C265.46 36.0748 266.585 34.9096 268.812 34.9096H269.206C271.431 34.9096 272.558 36.0748 272.558 38.3744V50.4129H270.471V49.4468C270.142 49.8052 269.745 50.0908 269.306 50.286C268.867 50.4812 268.394 50.5821 267.916 50.5826C266.24 50.5826 265.471 49.5878 265.471 47.8843L265.461 45.0761Z" fill="#CCCCCC"/>
<path d="M280.989 50.5082H278.902V38.1574C278.902 37.3909 278.544 37.0498 277.914 37.0498C277.338 37.0498 276.733 37.2704 275.985 37.8163V50.5082H273.904V35.1756H275.992V36.1701C276.596 35.5743 277.393 35.0049 278.546 35.0049C279.618 35.0049 280.331 35.4591 280.715 36.2544C281.457 35.6007 282.335 35.0049 283.544 35.0049C285.164 35.0049 285.989 36.0261 285.989 37.7032V50.5082H283.891V38.1574C283.891 37.3909 283.533 37.0498 282.903 37.0498C282.327 37.0498 281.722 37.2704 280.974 37.8163L280.989 50.5082Z" fill="#CCCCCC"/>
<path d="M245.722 36.5867V39.4067L242.21 42.8673L245.722 46.2656V49.1456L240.364 43.9351V41.8613L245.722 36.5867Z" fill="#CCCCCC"/>
<path d="M294 41.8613V43.9351L288.643 49.1456V46.2656L292.155 42.8673L288.643 39.4067V36.5867L294 41.8613Z" fill="#CCCCCC"/>
</g>
<g clip-path="url(#clip1)">
<path d="M125.552 36.0753H128.136C127.463 36.5048 126.839 37.0082 126.274 37.5766L123.691 40.279L125.108 42.3449C126.268 44.0901 127.569 45.7342 128.996 47.2602H125.302C124.8 46.093 124.196 44.9745 123.496 43.9183L121.829 41.369L123.275 39.5013C124.571 37.7838 125.33 36.6418 125.552 36.0753ZM121.631 37.3214V45.9841L121.743 46.6357C121.875 46.7849 122.051 46.8853 122.244 46.9209V47.2602H118.662V46.9209L119.163 46.6357C119.255 46.4322 119.294 46.2075 119.275 45.9841V37.3214L119.163 36.6999C119.104 36.6214 119.028 36.5576 118.941 36.5134C118.855 36.4692 118.759 36.4457 118.662 36.4446V36.0753H122.247V36.4446C122.15 36.4457 122.055 36.4692 121.968 36.5134C121.881 36.5576 121.805 36.6214 121.746 36.6999L121.631 37.3214ZM116.299 37.3214V45.9841L116.411 46.6357L116.909 46.9209V47.2602H113.304V46.9209C113.508 46.8719 113.698 46.7742 113.857 46.6357L113.94 45.9841V41.4801H109.718V45.9841L109.83 46.6357C109.961 46.7843 110.136 46.8846 110.328 46.9209V47.2602H106.69V46.9209C106.902 46.8909 107.097 46.7906 107.247 46.6357L107.356 45.9841V37.3214L107.247 36.6999C107.179 36.6178 107.093 36.5523 106.997 36.5081C106.901 36.464 106.796 36.4423 106.69 36.4446V36.0753H110.328V36.4446C110.232 36.4457 110.137 36.4692 110.05 36.5134C109.964 36.5577 109.889 36.6214 109.83 36.6999L109.718 37.3214V40.7475H113.94V37.3214L113.857 36.6999C113.709 36.5492 113.512 36.4585 113.304 36.4446V36.0753H116.918V36.4446C116.822 36.4457 116.726 36.4692 116.64 36.5134C116.554 36.5577 116.479 36.6214 116.42 36.6999L116.299 37.3214ZM128.996 51.1667H48.6101V50.0617H128.996V51.1667ZM98.8307 36.4536V36.0843H101.997C102.045 36.6486 102.177 37.2023 102.386 37.7268L104.719 44.4077C105.032 45.3876 105.412 46.3439 105.857 47.2692H103.073L101.894 43.2487H98.3594L97.6111 45.909L97.3872 47.2692H95.39L98.9485 38.8888C99.302 37.988 99.4758 37.3875 99.4758 37.0872C99.4758 36.7869 99.2431 36.5017 98.8307 36.4446V36.4536ZM100.136 37.955L98.6363 42.459H101.635L100.136 37.955ZM94.5386 38.5225H93.9288L93.7904 38.042C93.7153 37.607 93.475 37.2197 93.1217 36.9641L91.5957 36.7659H90.1228C89.8878 36.7374 89.6507 36.7983 89.457 36.9371C89.3495 37.0834 89.3001 37.2657 89.3186 37.4475V40.0899H89.9284C91.7077 40.0899 92.939 40.269 93.6225 40.6273C94.6044 41.1198 95.0954 42.0826 95.0954 43.5159C95.0954 44.9171 94.7026 45.918 93.917 46.5186C93.2297 47.007 92.1643 47.2522 90.7208 47.2542H86.3315V46.9149L86.8588 46.6297L86.9413 45.9781V37.3214L86.8588 36.6999C86.7954 36.6196 86.7151 36.555 86.6238 36.5108C86.5325 36.4666 86.4326 36.444 86.3315 36.4446V36.0753H94.5298L94.5386 38.5225ZM89.3186 40.8165V45.5998C89.3012 45.7299 89.3095 45.8622 89.3428 45.989C89.3762 46.1159 89.4341 46.2346 89.513 46.3384C89.7342 46.5126 90.0127 46.5933 90.2907 46.5636H90.6236C90.9228 46.5856 91.2226 46.5296 91.4947 46.4009C91.7668 46.2722 92.0023 46.075 92.179 45.828C92.4755 45.3756 92.6238 44.6489 92.6238 43.648C92.6238 42.6662 92.4647 41.9665 92.1525 41.5462C91.8167 41.0537 91.198 40.8105 90.2907 40.8105L89.3186 40.8165ZM85.3741 39.2882C85.3741 40.5883 84.9853 41.5251 84.1958 42.0896C83.5261 42.5821 82.4892 42.8273 81.085 42.8253H79.9715V45.9961L80.0834 46.6477C80.1394 46.7618 80.3161 46.8549 80.6107 46.9329V47.2722H76.9962V46.9329L77.497 46.6477L77.6089 45.9961V37.3214L77.497 36.6999C77.438 36.6214 77.3622 36.5576 77.2754 36.5134C77.1887 36.4692 77.0932 36.4457 76.9962 36.4446V36.0753H81.5681C82.8093 36.0753 83.7166 36.2645 84.2901 36.6428C85.0029 37.1393 85.3594 38.017 85.3594 39.2761L85.3741 39.2882ZM80.1512 36.886C80.0392 36.9611 79.9862 37.1322 79.9862 37.3965V42.1257H81.0968C81.3869 42.1507 81.6779 42.089 81.9342 41.9482C82.1905 41.8075 82.4011 41.5937 82.5402 41.333C82.7818 40.8585 82.9026 40.1319 82.9026 39.1801C82.9026 37.5786 82.2447 36.7779 80.9289 36.7779H80.652L80.1512 36.886ZM75.3465 38.5285H74.7573L74.6189 38.0481C74.5137 37.6188 74.2686 37.2387 73.9237 36.9701L72.4242 36.7719H71.2017L70.7569 36.886L70.6449 37.3124V40.7655H72.0914C73.089 40.7655 73.7459 40.6524 74.0621 40.4262V41.8404C73.7459 41.6162 73.089 41.5031 72.0914 41.5011H70.6449V45.7048C70.6323 45.8385 70.6551 45.9731 70.7111 46.0946C70.7671 46.2161 70.8541 46.3201 70.9631 46.3955L72.3535 46.5666H72.6481L74.1475 46.3414C74.4068 46.1693 74.61 45.7539 74.7573 45.0953L74.8693 44.6689H75.5645V47.2752H67.6638V46.9359C67.8667 46.9035 68.0532 46.8031 68.194 46.6507L68.303 45.9991V37.3214L68.194 36.6999C68.1303 36.6192 68.0495 36.5544 67.9577 36.5101C67.8658 36.4659 67.7653 36.4435 67.6638 36.4446V36.0753H75.3229L75.3465 38.5285ZM65.8756 38.5285H65.2865L65.1451 38.0481C65.0555 37.6128 64.8083 37.2279 64.4528 36.9701L62.9799 36.7719H61.451C61.2164 36.749 60.9812 36.8095 60.7852 36.9431C60.7175 37.1039 60.6892 37.2791 60.7028 37.4535V40.0899H61.3125C63.08 40.0899 64.3114 40.269 65.0066 40.6273C65.9709 41.1198 66.453 42.0826 66.453 43.5159C66.453 44.9171 66.0602 45.918 65.2747 46.5186C64.607 47.007 63.5416 47.2522 62.0785 47.2542H57.6597V46.9149C57.871 46.8849 58.0667 46.7846 58.2165 46.6297L58.3255 45.9781V37.3214L58.2165 36.6999C58.1481 36.6178 58.0627 36.5523 57.9664 36.5081C57.8701 36.464 57.7653 36.4423 57.6597 36.4446V36.0753H65.855L65.8756 38.5285ZM54.8199 37.0001C54.3506 36.7181 53.8078 36.5892 53.2645 36.6308C52.153 36.6308 51.3674 37.0462 50.9079 37.8769C50.5151 38.5955 50.3187 39.7656 50.3187 41.387C50.3187 43.0085 50.5318 44.2095 50.9579 44.9902C51.4764 45.9531 52.3651 46.4345 53.6239 46.4345C54.58 46.4266 55.5215 46.1944 56.3753 45.7559L56.7082 46.4615C55.5829 47.1416 54.2925 47.485 52.9847 47.4524C49.5066 47.4524 47.7666 45.5747 47.7646 41.8194C47.7646 37.8739 49.5695 35.9012 53.1791 35.9012C54.5695 35.9012 55.6349 36.0713 56.3753 36.4116V38.7327H55.6801L55.4857 38.0541C55.3773 37.6317 55.1388 37.2559 54.8052 36.9821L54.8199 37.0001ZM60.7116 40.8225V45.6058C60.6807 45.864 60.7391 46.1252 60.8766 46.3444C61.1081 46.5205 61.3964 46.601 61.6837 46.5696H61.9783C63.3118 46.5696 63.9785 45.5978 63.9785 43.654C63.9785 42.6712 63.8214 41.9705 63.5072 41.5522C63.1566 41.0597 62.5262 40.8165 61.6189 40.8165L60.7116 40.8225Z" fill="#CCCCCC"/>
<path d="M38.1924 34.2917L39.1645 35.1925L26.8863 42.3899L20.9445 38.8888L21.4984 37.7538L26.8863 40.8975L38.1924 34.2917ZM35.7209 32.8474L37.0259 33.529L26.8863 39.4893L22.173 36.7419L22.9801 35.751L26.8951 38.045L35.7209 32.8474ZM40.0306 36.1323L40.7553 37.1232L26.8863 45.2484L20.1934 41.3449L20.4879 40.0988L26.8745 43.8372L40.0306 36.1323Z" fill="#CCCCCC"/>
<path d="M42.026 39.7896C42.4368 40.9715 42.6441 42.2169 42.6388 43.4708C42.6413 44.7431 42.4342 46.0068 42.026 47.2091L41.7491 47.9748C41.1789 49.3453 40.3593 50.5934 39.3335 51.6531C37.1802 53.7832 34.3066 54.9892 31.3061 55.0221C29.7856 55.0267 28.2807 54.7087 26.8874 54.0882C25.5554 53.5101 24.3407 52.6843 23.3052 51.6531C22.2644 50.6025 21.4409 49.3497 20.8838 47.9688C20.2988 46.5422 19.9984 45.0111 20 43.4648V42.7021L26.8874 46.6957L41.4162 38.1982L42.026 39.7896Z" fill="#CCCCCC"/>
</g>
<g clip-path="url(#clip2)">
<path d="M76.5501 84.5742C75.3505 84.5742 73.9278 85.7748 72.7552 87.7956C71.5336 89.8869 70.8037 92.478 70.8037 94.726C70.8037 98.0195 72.5778 101.339 76.5484 101.339C80.5191 101.339 82.2932 98.0195 82.2932 94.726C82.2932 92.478 81.5632 89.8869 80.3467 87.7956C79.169 85.7748 77.7464 84.5742 76.5501 84.5742Z" fill="#CCCCCC"/>
<path d="M107.586 89.5125H111.609V100.44H115.919V89.5125H119.942V85.4708H107.586V89.5125Z" fill="#CCCCCC"/>
<path d="M129.138 89.5125H135.46V85.4638H129.14C123.331 85.4638 120.229 88.4722 120.229 92.9486C120.229 97.4251 123.331 100.433 129.14 100.433H135.46V96.3848H129.138C126.451 96.3848 124.682 95.3831 124.682 92.9416C124.682 90.5001 126.451 89.5125 129.138 89.5125Z" fill="#CCCCCC"/>
<path d="M98.8193 85.4708L96.5231 94.4062L94.2235 85.4708H86.6084V100.44H90.9203V88.2644L94.0512 100.44H98.9933L102.128 88.2574V100.44H106.438V85.4708H98.8193Z" fill="#CCCCCC"/>
</g>
<path d="M27.843 416.099C29.2528 416.099 30.3004 415.215 30.3004 414.026C30.3004 413.102 29.7536 412.431 28.8374 412.278V412.222C29.5724 411.998 30.0305 411.394 30.0305 410.574C30.0305 409.544 29.2173 408.628 27.8714 408.628C26.6143 408.628 25.5703 409.402 25.5277 410.545H26.38C26.4119 409.821 27.1009 409.395 27.8572 409.395C28.6598 409.395 29.1783 409.881 29.1783 410.616C29.1783 411.384 28.5781 411.881 27.7152 411.881H27.1328V412.662H27.7152C28.8196 412.662 29.4339 413.223 29.4339 414.026C29.4339 414.796 28.7628 415.318 27.8288 415.318C26.9872 415.318 26.3196 414.885 26.2663 414.182H25.3714C25.4247 415.325 26.4332 416.099 27.843 416.099ZM34.125 416.099C35.7301 416.099 36.6534 414.739 36.6534 412.364C36.6534 410.006 35.7159 408.628 34.125 408.628C32.5341 408.628 31.5966 410.006 31.5966 412.364C31.5966 414.739 32.5199 416.099 34.125 416.099ZM34.125 415.318C33.0668 415.318 32.4489 414.256 32.4489 412.364C32.4489 410.474 33.0739 409.395 34.125 409.395C35.1761 409.395 35.8011 410.474 35.8011 412.364C35.8011 414.256 35.1832 415.318 34.125 415.318ZM40.375 416.099C41.9801 416.099 42.9034 414.739 42.9034 412.364C42.9034 410.006 41.9659 408.628 40.375 408.628C38.7841 408.628 37.8466 410.006 37.8466 412.364C37.8466 414.739 38.7699 416.099 40.375 416.099ZM40.375 415.318C39.3168 415.318 38.6989 414.256 38.6989 412.364C38.6989 410.474 39.3239 409.395 40.375 409.395C41.4261 409.395 42.0511 410.474 42.0511 412.364C42.0511 414.256 41.4332 415.318 40.375 415.318ZM46.625 416.099C48.2301 416.099 49.1534 414.739 49.1534 412.364C49.1534 410.006 48.2159 408.628 46.625 408.628C45.0341 408.628 44.0966 410.006 44.0966 412.364C44.0966 414.739 45.0199 416.099 46.625 416.099ZM46.625 415.318C45.5668 415.318 44.9489 414.256 44.9489 412.364C44.9489 410.474 45.5739 409.395 46.625 409.395C47.6761 409.395 48.3011 410.474 48.3011 412.364C48.3011 414.256 47.6832 415.318 46.625 415.318ZM52.875 416.099C54.4801 416.099 55.4034 414.739 55.4034 412.364C55.4034 410.006 54.4659 408.628 52.875 408.628C51.2841 408.628 50.3466 410.006 50.3466 412.364C50.3466 414.739 51.2699 416.099 52.875 416.099ZM52.875 415.318C51.8168 415.318 51.1989 414.256 51.1989 412.364C51.1989 410.474 51.8239 409.395 52.875 409.395C53.9261 409.395 54.5511 410.474 54.5511 412.364C54.5511 414.256 53.9332 415.318 52.875 415.318Z" fill="url(#paint0_linear)"/>
<path d="M52.875 460.099C54.4801 460.099 55.4034 458.739 55.4034 456.364C55.4034 454.006 54.4659 452.628 52.875 452.628C51.2841 452.628 50.3466 454.006 50.3466 456.364C50.3466 458.739 51.2699 460.099 52.875 460.099ZM52.875 459.318C51.8168 459.318 51.1989 458.256 51.1989 456.364C51.1989 454.474 51.8239 453.395 52.875 453.395C53.9261 453.395 54.5511 454.474 54.5511 456.364C54.5511 458.256 53.9332 459.318 52.875 459.318Z" fill="url(#paint1_linear)"/>
<path d="M25.1664 370.509H28.5897V372H29.4277V370.509H30.4221V369.727H29.4277V364.727H28.3624L25.1664 369.784V370.509ZM28.5897 369.727H26.1181V369.67L28.5328 365.849H28.5897V369.727ZM34.125 372.099C35.7301 372.099 36.6534 370.739 36.6534 368.364C36.6534 366.006 35.7159 364.628 34.125 364.628C32.5341 364.628 31.5966 366.006 31.5966 368.364C31.5966 370.739 32.5199 372.099 34.125 372.099ZM34.125 371.318C33.0668 371.318 32.4489 370.256 32.4489 368.364C32.4489 366.474 33.0739 365.395 34.125 365.395C35.1761 365.395 35.8011 366.474 35.8011 368.364C35.8011 370.256 35.1832 371.318 34.125 371.318ZM40.375 372.099C41.9801 372.099 42.9034 370.739 42.9034 368.364C42.9034 366.006 41.9659 364.628 40.375 364.628C38.7841 364.628 37.8466 366.006 37.8466 368.364C37.8466 370.739 38.7699 372.099 40.375 372.099ZM40.375 371.318C39.3168 371.318 38.6989 370.256 38.6989 368.364C38.6989 366.474 39.3239 365.395 40.375 365.395C41.4261 365.395 42.0511 366.474 42.0511 368.364C42.0511 370.256 41.4332 371.318 40.375 371.318ZM46.625 372.099C48.2301 372.099 49.1534 370.739 49.1534 368.364C49.1534 366.006 48.2159 364.628 46.625 364.628C45.0341 364.628 44.0966 366.006 44.0966 368.364C44.0966 370.739 45.0199 372.099 46.625 372.099ZM46.625 371.318C45.5668 371.318 44.9489 370.256 44.9489 368.364C44.9489 366.474 45.5739 365.395 46.625 365.395C47.6761 365.395 48.3011 366.474 48.3011 368.364C48.3011 370.256 47.6832 371.318 46.625 371.318ZM52.875 372.099C54.4801 372.099 55.4034 370.739 55.4034 368.364C55.4034 366.006 54.4659 364.628 52.875 364.628C51.2841 364.628 50.3466 366.006 50.3466 368.364C50.3466 370.739 51.2699 372.099 52.875 372.099ZM52.875 371.318C51.8168 371.318 51.1989 370.256 51.1989 368.364C51.1989 366.474 51.8239 365.395 52.875 365.395C53.9261 365.395 54.5511 366.474 54.5511 368.364C54.5511 370.256 53.9332 371.318 52.875 371.318Z" fill="url(#paint2_linear)"/>
<path d="M27.9416 328.099C29.3265 328.099 30.3422 327.077 30.3422 325.685C30.3422 324.275 29.362 323.241 28.0268 323.241C27.5368 323.241 27.0609 323.415 26.7626 323.653H26.72L26.9757 321.509H30.0154V320.727H26.237L25.7967 324.307L26.6206 324.406C26.9224 324.19 27.4373 324.033 27.8848 324.037C28.8116 324.044 29.4899 324.747 29.4899 325.699C29.4899 326.633 28.8365 327.318 27.9416 327.318C27.1958 327.318 26.6028 326.839 26.5353 326.182H25.6831C25.7363 327.29 26.6916 328.099 27.9416 328.099ZM34.125 328.099C35.7301 328.099 36.6534 326.739 36.6534 324.364C36.6534 322.006 35.7159 320.628 34.125 320.628C32.5341 320.628 31.5966 322.006 31.5966 324.364C31.5966 326.739 32.5199 328.099 34.125 328.099ZM34.125 327.318C33.0668 327.318 32.4489 326.256 32.4489 324.364C32.4489 322.474 33.0739 321.395 34.125 321.395C35.1761 321.395 35.8011 322.474 35.8011 324.364C35.8011 326.256 35.1832 327.318 34.125 327.318ZM40.375 328.099C41.9801 328.099 42.9034 326.739 42.9034 324.364C42.9034 322.006 41.9659 320.628 40.375 320.628C38.7841 320.628 37.8466 322.006 37.8466 324.364C37.8466 326.739 38.7699 328.099 40.375 328.099ZM40.375 327.318C39.3168 327.318 38.6989 326.256 38.6989 324.364C38.6989 322.474 39.3239 321.395 40.375 321.395C41.4261 321.395 42.0511 322.474 42.0511 324.364C42.0511 326.256 41.4332 327.318 40.375 327.318ZM46.625 328.099C48.2301 328.099 49.1534 326.739 49.1534 324.364C49.1534 322.006 48.2159 320.628 46.625 320.628C45.0341 320.628 44.0966 322.006 44.0966 324.364C44.0966 326.739 45.0199 328.099 46.625 328.099ZM46.625 327.318C45.5668 327.318 44.9489 326.256 44.9489 324.364C44.9489 322.474 45.5739 321.395 46.625 321.395C47.6761 321.395 48.3011 322.474 48.3011 324.364C48.3011 326.256 47.6832 327.318 46.625 327.318ZM52.875 328.099C54.4801 328.099 55.4034 326.739 55.4034 324.364C55.4034 322.006 54.4659 320.628 52.875 320.628C51.2841 320.628 50.3466 322.006 50.3466 324.364C50.3466 326.739 51.2699 328.099 52.875 328.099ZM52.875 327.318C51.8168 327.318 51.1989 326.256 51.1989 324.364C51.1989 322.474 51.8239 321.395 52.875 321.395C53.9261 321.395 54.5511 322.474 54.5511 324.364C54.5511 326.256 53.9332 327.318 52.875 327.318Z" fill="url(#paint3_linear)"/>
<path d="M27.9203 284.099C29.3727 284.099 30.3848 283.251 30.3919 282.068C30.3848 281.148 29.7704 280.367 28.9856 280.222V280.179C29.6674 280.001 30.1149 279.334 30.122 278.56C30.1149 277.452 29.1845 276.628 27.9203 276.628C26.6419 276.628 25.7115 277.452 25.7186 278.56C25.7115 279.334 26.1589 280.001 26.8549 280.179V280.222C26.0559 280.367 25.4416 281.148 25.4487 282.068C25.4416 283.251 26.4537 284.099 27.9203 284.099ZM27.9203 283.318C26.9224 283.318 26.3081 282.807 26.3152 282.026C26.3081 281.205 26.9863 280.619 27.9203 280.619C28.84 280.619 29.5183 281.205 29.5254 282.026C29.5183 282.807 28.9039 283.318 27.9203 283.318ZM27.9203 279.866C27.1248 279.866 26.5637 279.369 26.5708 278.616C26.5637 277.878 27.1035 277.395 27.9203 277.395C28.7228 277.395 29.2626 277.878 29.2697 278.616C29.2626 279.369 28.7015 279.866 27.9203 279.866ZM34.125 284.099C35.7301 284.099 36.6534 282.739 36.6534 280.364C36.6534 278.006 35.7159 276.628 34.125 276.628C32.5341 276.628 31.5966 278.006 31.5966 280.364C31.5966 282.739 32.5199 284.099 34.125 284.099ZM34.125 283.318C33.0668 283.318 32.4489 282.256 32.4489 280.364C32.4489 278.474 33.0739 277.395 34.125 277.395C35.1761 277.395 35.8011 278.474 35.8011 280.364C35.8011 282.256 35.1832 283.318 34.125 283.318ZM40.375 284.099C41.9801 284.099 42.9034 282.739 42.9034 280.364C42.9034 278.006 41.9659 276.628 40.375 276.628C38.7841 276.628 37.8466 278.006 37.8466 280.364C37.8466 282.739 38.7699 284.099 40.375 284.099ZM40.375 283.318C39.3168 283.318 38.6989 282.256 38.6989 280.364C38.6989 278.474 39.3239 277.395 40.375 277.395C41.4261 277.395 42.0511 278.474 42.0511 280.364C42.0511 282.256 41.4332 283.318 40.375 283.318ZM46.625 284.099C48.2301 284.099 49.1534 282.739 49.1534 280.364C49.1534 278.006 48.2159 276.628 46.625 276.628C45.0341 276.628 44.0966 278.006 44.0966 280.364C44.0966 282.739 45.0199 284.099 46.625 284.099ZM46.625 283.318C45.5668 283.318 44.9489 282.256 44.9489 280.364C44.9489 278.474 45.5739 277.395 46.625 277.395C47.6761 277.395 48.3011 278.474 48.3011 280.364C48.3011 282.256 47.6832 283.318 46.625 283.318ZM52.875 284.099C54.4801 284.099 55.4034 282.739 55.4034 280.364C55.4034 278.006 54.4659 276.628 52.875 276.628C51.2841 276.628 50.3466 278.006 50.3466 280.364C50.3466 282.739 51.2699 284.099 52.875 284.099ZM52.875 283.318C51.8168 283.318 51.1989 282.256 51.1989 280.364C51.1989 278.474 51.8239 277.395 52.875 277.395C53.9261 277.395 54.5511 278.474 54.5511 280.364C54.5511 282.256 53.9332 283.318 52.875 283.318Z" fill="url(#paint4_linear)"/>
<path d="M23.4112 232.727H22.5305L20.7124 233.935V234.83L22.4879 233.651H22.5305V240H23.4112V232.727ZM27.875 240.099C29.4801 240.099 30.4034 238.739 30.4034 236.364C30.4034 234.006 29.4659 232.628 27.875 232.628C26.2841 232.628 25.3466 234.006 25.3466 236.364C25.3466 238.739 26.2699 240.099 27.875 240.099ZM27.875 239.318C26.8168 239.318 26.1989 238.256 26.1989 236.364C26.1989 234.474 26.8239 233.395 27.875 233.395C28.9261 233.395 29.5511 234.474 29.5511 236.364C29.5511 238.256 28.9332 239.318 27.875 239.318ZM34.125 240.099C35.7301 240.099 36.6534 238.739 36.6534 236.364C36.6534 234.006 35.7159 232.628 34.125 232.628C32.5341 232.628 31.5966 234.006 31.5966 236.364C31.5966 238.739 32.5199 240.099 34.125 240.099ZM34.125 239.318C33.0668 239.318 32.4489 238.256 32.4489 236.364C32.4489 234.474 33.0739 233.395 34.125 233.395C35.1761 233.395 35.8011 234.474 35.8011 236.364C35.8011 238.256 35.1832 239.318 34.125 239.318ZM40.375 240.099C41.9801 240.099 42.9034 238.739 42.9034 236.364C42.9034 234.006 41.9659 232.628 40.375 232.628C38.7841 232.628 37.8466 234.006 37.8466 236.364C37.8466 238.739 38.7699 240.099 40.375 240.099ZM40.375 239.318C39.3168 239.318 38.6989 238.256 38.6989 236.364C38.6989 234.474 39.3239 233.395 40.375 233.395C41.4261 233.395 42.0511 234.474 42.0511 236.364C42.0511 238.256 41.4332 239.318 40.375 239.318ZM46.625 240.099C48.2301 240.099 49.1534 238.739 49.1534 236.364C49.1534 234.006 48.2159 232.628 46.625 232.628C45.0341 232.628 44.0966 234.006 44.0966 236.364C44.0966 238.739 45.0199 240.099 46.625 240.099ZM46.625 239.318C45.5668 239.318 44.9489 238.256 44.9489 236.364C44.9489 234.474 45.5739 233.395 46.625 233.395C47.6761 233.395 48.3011 234.474 48.3011 236.364C48.3011 238.256 47.6832 239.318 46.625 239.318ZM52.875 240.099C54.4801 240.099 55.4034 238.739 55.4034 236.364C55.4034 234.006 54.4659 232.628 52.875 232.628C51.2841 232.628 50.3466 234.006 50.3466 236.364C50.3466 238.739 51.2699 240.099 52.875 240.099ZM52.875 239.318C51.8168 239.318 51.1989 238.256 51.1989 236.364C51.1989 234.474 51.8239 233.395 52.875 233.395C53.9261 233.395 54.5511 234.474 54.5511 236.364C54.5511 238.256 53.9332 239.318 52.875 239.318Z" fill="url(#paint5_linear)"/>
<path d="M23.6065 188.727H22.7259L20.9077 189.935V190.83L22.6832 189.651H22.7259V196H23.6065V188.727ZM25.6982 196H30.2862V195.219H26.9055V195.162L28.5391 193.415C29.7891 192.076 30.1584 191.451 30.1584 190.645C30.1584 189.523 29.2493 188.628 27.9709 188.628C26.696 188.628 25.7266 189.494 25.7266 190.773H26.5646C26.5646 189.945 27.1009 189.395 27.9425 189.395C28.7308 189.395 29.3345 189.878 29.3345 190.645C29.3345 191.316 28.9403 191.813 28.0987 192.733L25.6982 195.361V196ZM34.125 196.099C35.7301 196.099 36.6534 194.739 36.6534 192.364C36.6534 190.006 35.7159 188.628 34.125 188.628C32.5341 188.628 31.5966 190.006 31.5966 192.364C31.5966 194.739 32.5199 196.099 34.125 196.099ZM34.125 195.318C33.0668 195.318 32.4489 194.256 32.4489 192.364C32.4489 190.474 33.0739 189.395 34.125 189.395C35.1761 189.395 35.8011 190.474 35.8011 192.364C35.8011 194.256 35.1832 195.318 34.125 195.318ZM40.375 196.099C41.9801 196.099 42.9034 194.739 42.9034 192.364C42.9034 190.006 41.9659 188.628 40.375 188.628C38.7841 188.628 37.8466 190.006 37.8466 192.364C37.8466 194.739 38.7699 196.099 40.375 196.099ZM40.375 195.318C39.3168 195.318 38.6989 194.256 38.6989 192.364C38.6989 190.474 39.3239 189.395 40.375 189.395C41.4261 189.395 42.0511 190.474 42.0511 192.364C42.0511 194.256 41.4332 195.318 40.375 195.318ZM46.625 196.099C48.2301 196.099 49.1534 194.739 49.1534 192.364C49.1534 190.006 48.2159 188.628 46.625 188.628C45.0341 188.628 44.0966 190.006 44.0966 192.364C44.0966 194.739 45.0199 196.099 46.625 196.099ZM46.625 195.318C45.5668 195.318 44.9489 194.256 44.9489 192.364C44.9489 190.474 45.5739 189.395 46.625 189.395C47.6761 189.395 48.3011 190.474 48.3011 192.364C48.3011 194.256 47.6832 195.318 46.625 195.318ZM52.875 196.099C54.4801 196.099 55.4034 194.739 55.4034 192.364C55.4034 190.006 54.4659 188.628 52.875 188.628C51.2841 188.628 50.3466 190.006 50.3466 192.364C50.3466 194.739 51.2699 196.099 52.875 196.099ZM52.875 195.318C51.8168 195.318 51.1989 194.256 51.1989 192.364C51.1989 190.474 51.8239 189.395 52.875 189.395C53.9261 189.395 54.5511 190.474 54.5511 192.364C54.5511 194.256 53.9332 195.318 52.875 195.318Z" fill="url(#paint6_linear)"/>
<path d="M23.421 144.727H22.5403L20.7221 145.935V146.83L22.4977 145.651H22.5403V152H23.421V144.727ZM27.9274 152.099C29.3975 152.117 30.3564 151.009 30.3564 149.656C30.3564 148.25 29.3159 147.241 28.0694 147.241C27.3201 147.241 26.6774 147.607 26.2797 148.207H26.2228C26.2264 146.421 26.9153 145.395 28.041 145.395C28.8081 145.395 29.2697 145.878 29.4331 146.545H30.2995C30.122 145.402 29.2626 144.614 28.041 144.614C26.4039 144.614 25.399 146.062 25.399 148.648C25.399 151.336 26.7342 152.085 27.9274 152.099ZM27.9274 151.318C27.0147 151.318 26.3471 150.54 26.3507 149.67C26.3542 148.8 27.0538 148.023 27.9558 148.023C28.8471 148.023 29.5041 148.754 29.5041 149.656C29.5041 150.58 28.8187 151.318 27.9274 151.318ZM34.125 152.099C35.7301 152.099 36.6534 150.739 36.6534 148.364C36.6534 146.006 35.7159 144.628 34.125 144.628C32.5341 144.628 31.5966 146.006 31.5966 148.364C31.5966 150.739 32.5199 152.099 34.125 152.099ZM34.125 151.318C33.0668 151.318 32.4489 150.256 32.4489 148.364C32.4489 146.474 33.0739 145.395 34.125 145.395C35.1761 145.395 35.8011 146.474 35.8011 148.364C35.8011 150.256 35.1832 151.318 34.125 151.318ZM40.375 152.099C41.9801 152.099 42.9034 150.739 42.9034 148.364C42.9034 146.006 41.9659 144.628 40.375 144.628C38.7841 144.628 37.8466 146.006 37.8466 148.364C37.8466 150.739 38.7699 152.099 40.375 152.099ZM40.375 151.318C39.3168 151.318 38.6989 150.256 38.6989 148.364C38.6989 146.474 39.3239 145.395 40.375 145.395C41.4261 145.395 42.0511 146.474 42.0511 148.364C42.0511 150.256 41.4332 151.318 40.375 151.318ZM46.625 152.099C48.2301 152.099 49.1534 150.739 49.1534 148.364C49.1534 146.006 48.2159 144.628 46.625 144.628C45.0341 144.628 44.0966 146.006 44.0966 148.364C44.0966 150.739 45.0199 152.099 46.625 152.099ZM46.625 151.318C45.5668 151.318 44.9489 150.256 44.9489 148.364C44.9489 146.474 45.5739 145.395 46.625 145.395C47.6761 145.395 48.3011 146.474 48.3011 148.364C48.3011 150.256 47.6832 151.318 46.625 151.318ZM52.875 152.099C54.4801 152.099 55.4034 150.739 55.4034 148.364C55.4034 146.006 54.4659 144.628 52.875 144.628C51.2841 144.628 50.3466 146.006 50.3466 148.364C50.3466 150.739 51.2699 152.099 52.875 152.099ZM52.875 151.318C51.8168 151.318 51.1989 150.256 51.1989 148.364C51.1989 146.474 51.8239 145.395 52.875 145.395C53.9261 145.395 54.5511 146.474 54.5511 148.364C54.5511 150.256 53.9332 151.318 52.875 151.318Z" fill="url(#paint7_linear)"/>
<path d="M60 456H294" stroke="#F0F0F0"/>
<path d="M60 412H294" stroke="#F0F0F0"/>
<path d="M60 368H294" stroke="#F0F0F0"/>
<path d="M60 324H294" stroke="#F0F0F0"/>
<path d="M60 280H294" stroke="#F0F0F0"/>
<path d="M60 236H294" stroke="#F0F0F0"/>
<path d="M60 192H294" stroke="#F0F0F0"/>
<path d="M60 148H294" stroke="#F0F0F0"/>
<path d="M78 159.22C78 158.081 78 157.512 78.2252 157.078C78.4149 156.713 78.7128 156.415 79.0781 156.225C79.5115 156 80.081 156 81.22 156H84.78C85.919 156 86.4885 156 86.9219 156.225C87.2872 156.415 87.5851 156.713 87.7748 157.078C88 157.512 88 158.081 88 159.22V456H78V159.22Z" fill="url(#paint8_linear)"/>
<path d="M92 203.22C92 202.081 92 201.512 92.2252 201.078C92.4149 200.713 92.7128 200.415 93.0781 200.225C93.5115 200 94.081 200 95.22 200H98.78C99.919 200 100.488 200 100.922 200.225C101.287 200.415 101.585 200.713 101.775 201.078C102 201.512 102 202.081 102 203.22V456H92V203.22Z" fill="url(#paint9_linear)"/>
<path d="M106 241.22C106 240.081 106 239.512 106.225 239.078C106.415 238.713 106.713 238.415 107.078 238.225C107.512 238 108.081 238 109.22 238H112.78C113.919 238 114.488 238 114.922 238.225C115.287 238.415 115.585 238.713 115.775 239.078C116 239.512 116 240.081 116 241.22V456H106V241.22Z" fill="url(#paint10_linear)"/>
<path d="M120 274.22C120 273.081 120 272.512 120.225 272.078C120.415 271.713 120.713 271.415 121.078 271.225C121.512 271 122.081 271 123.22 271H126.78C127.919 271 128.488 271 128.922 271.225C129.287 271.415 129.585 271.713 129.775 272.078C130 272.512 130 273.081 130 274.22V456H120V274.22Z" fill="url(#paint11_linear)"/>
<path d="M134 274.22C134 273.081 134 272.512 134.225 272.078C134.415 271.713 134.713 271.415 135.078 271.225C135.512 271 136.081 271 137.22 271H140.78C141.919 271 142.488 271 142.922 271.225C143.287 271.415 143.585 271.713 143.775 272.078C144 272.512 144 273.081 144 274.22V456H134V274.22Z" fill="url(#paint12_linear)"/>
<path d="M148 286.22C148 285.081 148 284.512 148.225 284.078C148.415 283.713 148.713 283.415 149.078 283.225C149.512 283 150.081 283 151.22 283H154.78C155.919 283 156.488 283 156.922 283.225C157.287 283.415 157.585 283.713 157.775 284.078C158 284.512 158 285.081 158 286.22V456H148V286.22Z" fill="url(#paint13_linear)"/>
<path d="M162 286.22C162 285.081 162 284.512 162.225 284.078C162.415 283.713 162.713 283.415 163.078 283.225C163.512 283 164.081 283 165.22 283H168.78C169.919 283 170.488 283 170.922 283.225C171.287 283.415 171.585 283.713 171.775 284.078C172 284.512 172 285.081 172 286.22V456H162V286.22Z" fill="url(#paint14_linear)"/>
<path d="M176 312.22C176 311.081 176 310.512 176.225 310.078C176.415 309.713 176.713 309.415 177.078 309.225C177.512 309 178.081 309 179.22 309H182.78C183.919 309 184.488 309 184.922 309.225C185.287 309.415 185.585 309.713 185.775 310.078C186 310.512 186 311.081 186 312.22V456H176V312.22Z" fill="url(#paint15_linear)"/>
<path d="M190 312.22C190 311.081 190 310.512 190.225 310.078C190.415 309.713 190.713 309.415 191.078 309.225C191.512 309 192.081 309 193.22 309H196.78C197.919 309 198.488 309 198.922 309.225C199.287 309.415 199.585 309.713 199.775 310.078C200 310.512 200 311.081 200 312.22V456H190V312.22Z" fill="url(#paint16_linear)"/>
<path d="M204 343.22C204 342.081 204 341.512 204.225 341.078C204.415 340.713 204.713 340.415 205.078 340.225C205.512 340 206.081 340 207.22 340H210.78C211.919 340 212.488 340 212.922 340.225C213.287 340.415 213.585 340.713 213.775 341.078C214 341.512 214 342.081 214 343.22V456H204V343.22Z" fill="url(#paint17_linear)"/>
<path d="M218 362.22C218 361.081 218 360.512 218.225 360.078C218.415 359.713 218.713 359.415 219.078 359.225C219.512 359 220.081 359 221.22 359H224.78C225.919 359 226.488 359 226.922 359.225C227.287 359.415 227.585 359.713 227.775 360.078C228 360.512 228 361.081 228 362.22V456H218V362.22Z" fill="url(#paint18_linear)"/>
<path d="M232 372.22C232 371.081 232 370.512 232.225 370.078C232.415 369.713 232.713 369.415 233.078 369.225C233.512 369 234.081 369 235.22 369H238.78C239.919 369 240.488 369 240.922 369.225C241.287 369.415 241.585 369.713 241.775 370.078C242 370.512 242 371.081 242 372.22V456H232V372.22Z" fill="url(#paint19_linear)"/>
<path d="M246 372.22C246 371.081 246 370.512 246.225 370.078C246.415 369.713 246.713 369.415 247.078 369.225C247.512 369 248.081 369 249.22 369H252.78C253.919 369 254.488 369 254.922 369.225C255.287 369.415 255.585 369.713 255.775 370.078C256 370.512 256 371.081 256 372.22V456H246V372.22Z" fill="url(#paint20_linear)"/>
<path d="M260 404.22C260 403.081 260 402.512 260.225 402.078C260.415 401.713 260.713 401.415 261.078 401.225C261.512 401 262.081 401 263.22 401H266.78C267.919 401 268.488 401 268.922 401.225C269.287 401.415 269.585 401.713 269.775 402.078C270 402.512 270 403.081 270 404.22V456H260V404.22Z" fill="url(#paint21_linear)"/>
<path d="M274 418.22C274 417.081 274 416.512 274.225 416.078C274.415 415.713 274.713 415.415 275.078 415.225C275.512 415 276.081 415 277.22 415H280.78C281.919 415 282.488 415 282.922 415.225C283.287 415.415 283.585 415.713 283.775 416.078C284 416.512 284 417.081 284 418.22V456H274V418.22Z" fill="url(#paint22_linear)"/>
<defs>
<filter id="filter0_d" x="-13" y="0" width="344" height="514" filterUnits="userSpaceOnUse" color-interpolation-filters="sRGB">
<feFlood flood-opacity="0" result="BackgroundImageFix"/>
<feColorMatrix in="SourceAlpha" type="matrix" values="0 0 0 0 0 0 0 0 0 0 0 0 0 0 0 0 0 0 127 0"/>
<feOffset dx="2" dy="4"/>
<feGaussianBlur stdDeviation="7.5"/>
<feColorMatrix type="matrix" values="0 0 0 0 0 0 0 0 0 0 0 0 0 0 0 0 0 0 0.05 0"/>
<feBlend mode="normal" in2="BackgroundImageFix" result="effect1_dropShadow"/>
<feBlend mode="normal" in="SourceGraphic" in2="effect1_dropShadow" result="shape"/>
</filter>
<linearGradient id="paint0_linear" x1="23.7073" y1="412.315" x2="55.8567" y2="415.535" gradientUnits="userSpaceOnUse">
<stop stop-color="#330099"/>
<stop offset="1" stop-color="#000099"/>
</linearGradient>
<linearGradient id="paint1_linear" x1="48.936" y1="456.315" x2="56.0358" y2="456.47" gradientUnits="userSpaceOnUse">
<stop stop-color="#330099"/>
<stop offset="1" stop-color="#000099"/>
</linearGradient>
<linearGradient id="paint2_linear" x1="23.7073" y1="368.315" x2="55.8567" y2="371.535" gradientUnits="userSpaceOnUse">
<stop stop-color="#330099"/>
<stop offset="1" stop-color="#000099"/>
</linearGradient>
<linearGradient id="paint3_linear" x1="23.7073" y1="324.315" x2="55.8567" y2="327.535" gradientUnits="userSpaceOnUse">
<stop stop-color="#330099"/>
<stop offset="1" stop-color="#000099"/>
</linearGradient>
<linearGradient id="paint4_linear" x1="23.7073" y1="280.315" x2="55.8567" y2="283.535" gradientUnits="userSpaceOnUse">
<stop stop-color="#330099"/>
<stop offset="1" stop-color="#000099"/>
</linearGradient>
<linearGradient id="paint5_linear" x1="19.6707" y1="236.315" x2="55.7437" y2="240.38" gradientUnits="userSpaceOnUse">
<stop stop-color="#330099"/>
<stop offset="1" stop-color="#000099"/>
</linearGradient>
<linearGradient id="paint6_linear" x1="19.6707" y1="192.315" x2="55.7437" y2="196.38" gradientUnits="userSpaceOnUse">
<stop stop-color="#330099"/>
<stop offset="1" stop-color="#000099"/>
</linearGradient>
<linearGradient id="paint7_linear" x1="19.6707" y1="148.315" x2="55.7437" y2="152.38" gradientUnits="userSpaceOnUse">
<stop stop-color="#330099"/>
<stop offset="1" stop-color="#000099"/>
</linearGradient>
<linearGradient id="paint8_linear" x1="82.9966" y1="155.829" x2="148.858" y2="171.035" gradientUnits="userSpaceOnUse">
<stop stop-color="#330099"/>
<stop offset="1" stop-color="#000099"/>
</linearGradient>
<linearGradient id="paint9_linear" x1="96.9961" y1="182.626" x2="165.979" y2="201.289" gradientUnits="userSpaceOnUse">
<stop offset="0.239583" stop-color="#330099"/>
<stop offset="1" stop-color="#000099"/>
</linearGradient>
<linearGradient id="paint10_linear" x1="110.996" y1="222.427" x2="178.465" y2="243.862" gradientUnits="userSpaceOnUse">
<stop offset="0.239583" stop-color="#330099"/>
<stop offset="1" stop-color="#000099"/>
</linearGradient>
<linearGradient id="paint11_linear" x1="124.996" y1="257.124" x2="190.361" y2="281.595" gradientUnits="userSpaceOnUse">
<stop offset="0.239583" stop-color="#330099"/>
<stop offset="1" stop-color="#000099"/>
</linearGradient>
<linearGradient id="paint12_linear" x1="138.996" y1="257.124" x2="204.361" y2="281.595" gradientUnits="userSpaceOnUse">
<stop offset="0.239583" stop-color="#330099"/>
<stop offset="1" stop-color="#000099"/>
</linearGradient>
<linearGradient id="paint13_linear" x1="152.996" y1="254.954" x2="222.427" y2="282.751" gradientUnits="userSpaceOnUse">
<stop offset="0.239583" stop-color="#330099"/>
<stop offset="1" stop-color="#000099"/>
</linearGradient>
<linearGradient id="paint14_linear" x1="166.996" y1="254.954" x2="236.427" y2="282.751" gradientUnits="userSpaceOnUse">
<stop offset="0.239583" stop-color="#330099"/>
<stop offset="1" stop-color="#000099"/>
</linearGradient>
<linearGradient id="paint15_linear" x1="180.996" y1="268.133" x2="253.489" y2="302.289" gradientUnits="userSpaceOnUse">
<stop offset="0.239583" stop-color="#330099"/>
<stop offset="1" stop-color="#000099"/>
</linearGradient>
<linearGradient id="paint16_linear" x1="194.996" y1="268.133" x2="267.489" y2="302.289" gradientUnits="userSpaceOnUse">
<stop offset="0.239583" stop-color="#330099"/>
<stop offset="1" stop-color="#000099"/>
</linearGradient>
<linearGradient id="paint17_linear" x1="208.996" y1="295.017" x2="279.906" y2="337.355" gradientUnits="userSpaceOnUse">
<stop offset="0.239583" stop-color="#330099"/>
<stop offset="1" stop-color="#000099"/>
</linearGradient>
<linearGradient id="paint18_linear" x1="222.996" y1="308.428" x2="292.832" y2="358.293" gradientUnits="userSpaceOnUse">
<stop offset="0.239583" stop-color="#330099"/>
<stop offset="1" stop-color="#000099"/>
</linearGradient>
<linearGradient id="paint19_linear" x1="236.996" y1="324.084" x2="301.319" y2="375.291" gradientUnits="userSpaceOnUse">
<stop offset="0.239583" stop-color="#330099"/>
<stop offset="1" stop-color="#000099"/>
</linearGradient>
<linearGradient id="paint20_linear" x1="250.996" y1="324.084" x2="315.319" y2="375.291" gradientUnits="userSpaceOnUse">
<stop offset="0.239583" stop-color="#330099"/>
<stop offset="1" stop-color="#000099"/>
</linearGradient>
<linearGradient id="paint21_linear" x1="264.996" y1="357.316" x2="313.083" y2="417.87" gradientUnits="userSpaceOnUse">
<stop offset="0.239583" stop-color="#330099"/>
<stop offset="1" stop-color="#000099"/>
</linearGradient>
<linearGradient id="paint22_linear" x1="278.996" y1="377.589" x2="313.386" y2="435.684" gradientUnits="userSpaceOnUse">
<stop offset="0.239583" stop-color="#330099"/>
<stop offset="1" stop-color="#000099"/>
</linearGradient>
<clipPath id="clip0">
<rect x="240.364" y="31" width="53.6358" height="24.016" fill="white"/>
</clipPath>
<clipPath id="clip1">
<rect x="20" y="32.8474" width="108.996" height="22.1687" fill="white"/>
</clipPath>
<clipPath id="clip2">
<rect x="70.8037" y="84.5742" width="64.6586" height="16.7652" fill="white"/>
</clipPath>
</defs>
</svg>
